<svg version="1.2" xmlns="http://www.w3.org/2000/svg" viewBox="0 0 1335 869"  fill="currentColor">

	<path id="Path 1" fill-rule="evenodd" d="m126.25 1.49c-1.24 0.83-2.93 2.86-3.75 4.51-0.82 1.65-1.51 4.01-1.52 5.25-0.01 1.24 1.12 4.5 2.5 7.25 1.38 2.75 2.51 6.46 2.52 8.25 0 1.79-0.34 3.27-0.75 3.29-0.41 0.02-1.88-2.01-3.25-4.5-1.49-2.71-3.21-4.54-4.25-4.54-0.96 0-2.67 1.01-3.79 2.25-1.13 1.24-2.54 3.83-3.14 5.75-0.86 2.77-0.73 4.97 0.63 10.5 0.94 3.85 2.14 9.47 2.66 12.5 0.53 3.1 2.41 7.9 4.3 11 1.84 3.03 4.98 8.54 6.97 12.25 2.2 4.1 3.37 7.44 3 8.5-0.35 0.96-0.02 2.88 0.73 4.25 0.75 1.38 2.94 4.17 4.88 6.21 1.93 2.03 4.3 3.72 5.26 3.75 0.96 0.02 2.54 1.22 3.5 2.65 0.96 1.44 3.21 3.46 5 4.5 1.79 1.04 4.15 1.67 5.25 1.39 1.39-0.35 2-1.34 2.01-3.25 0.01-1.51-1.45-4.96-3.25-7.65-1.79-2.7-3.78-5.85-4.41-7-0.63-1.16-1.87-3.79-2.75-5.85-0.88-2.06-2.28-3.75-3.1-3.75-0.92 0-1.89-1.56-2.5-4-0.57-2.26-1.76-4.26-2.75-4.61-0.96-0.33-2.31-0.33-3 0-0.69 0.34-1.03 1.51-0.75 2.61 0.31 1.23 1.08 1.81 2 1.5 1.18-0.39 1.5 0.41 1.49 3.75-0.01 2.34 0.94 6.28 2.11 8.75 1.17 2.47 3.29 6.07 4.72 8l2.6 3.5c-5.75-5.04-8.32-6.5-9.42-6.5-1.1 0-2.05-0.56-2.11-1.25-0.05-0.69-0.02-2.37 0.07-3.75 0.1-1.42-0.74-3.37-1.93-4.5-1.38-1.32-2.07-3.19-2.03-5.5 0.03-2.19-0.87-4.81-2.42-7-1.37-1.93-4.13-6.2-6.14-9.5-2.48-4.06-3.95-7.94-4.53-12-0.48-3.3-1.33-7.58-1.89-9.5-0.56-1.92-1.02-4.74-1.02-6.25 0-1.51 0.68-4.1 1.5-5.75 0.82-1.65 1.84-2.75 2.25-2.45 0.41 0.3 1.89 2.67 3.28 5.25 1.47 2.74 3.34 4.83 4.5 5.02 1.08 0.18 2.3-0.27 2.7-1 0.41-0.72 0.76-3.79 0.78-6.82 0.04-4.03-0.63-6.77-2.48-10.25-1.87-3.51-2.33-5.45-1.78-7.41 0.41-1.47 1.76-3.49 3-4.5 1.42-1.16 2.87-1.56 3.92-1.09 0.92 0.41 3.33 3.22 5.35 6.25 2.03 3.03 5.22 6.86 7.08 8.51 1.87 1.66 7.45 5.21 12.4 7.89 4.95 2.68 11.47 6.55 14.5 8.59 3.03 2.05 8.16 6.15 11.4 9.12 3.25 2.96 8.7 8.99 12.12 13.39 3.43 4.4 8.72 11.82 11.76 16.5 3.05 4.68 6.51 10.97 7.71 14 1.19 3.03 3.02 9.55 4.06 14.5 1.04 4.95 2.4 10.8 3.03 13 0.63 2.2 2.45 6.59 4.03 9.75 1.59 3.16 4.62 7.44 6.74 9.5 2.12 2.06 6.28 4.95 9.25 6.41 2.97 1.46 9.22 3.88 13.9 5.38 4.68 1.5 11.65 4.21 15.5 6.02 3.85 1.82 11.73 6.39 17.5 10.17 8.1 5.3 11.64 7.02 15.5 7.53 2.75 0.37 5.84 1.47 6.87 2.45 1.03 0.99 3.72 4.49 5.97 7.79 2.26 3.3 7.49 10.05 11.62 15 4.14 4.95 12.47 14.2 18.53 20.56 6.14 6.44 12.29 13.96 13.9 17 1.59 2.99 7.65 11.74 13.48 19.44 5.82 7.7 14.9 21.2 20.17 30 5.27 8.8 12.77 20.73 16.66 26.5 3.89 5.77 10.11 14.32 13.82 19 3.7 4.68 7.61 10.52 8.69 13 1.6 3.68 1.75 5.05 0.86 7.5-0.61 1.65-1.1 4.01-1.09 5.25 0.01 1.24 1.24 4.39 2.72 7 1.49 2.61 6.29 10.38 10.66 17.25 4.38 6.88 8.62 14.3 9.42 16.5 0.81 2.2 1.4 5.35 1.33 7-0.08 1.65 0.3 4.35 0.83 6 0.54 1.65 3.36 5.27 6.27 8.03 3.44 3.28 9.48 7.19 17.29 11.2 8.79 4.51 13.2 7.46 16.5 11.01 2.48 2.67 7.2 8.61 10.5 13.2 3.3 4.59 8.92 11.03 12.5 14.32 3.58 3.28 8.98 7.66 12 9.72 3.02 2.06 10.67 6.83 17 10.59 8.05 4.8 12.85 7.01 16 7.39 4.3 0.52 4.51 0.69 4.79 4.04 0.15 1.92 0.74 4.63 1.31 6 0.76 1.85 0.59 4.05-0.63 8.5-0.91 3.3-1.39 7.01-1.06 8.25 0.33 1.26 1.36 2.24 2.34 2.23 0.96-0.01 2.88-0.9 4.25-1.98 1.37-1.08 3.29-1.97 4.25-1.98 1.48-0.02 1.71 0.79 1.5 5.23-0.25 5.17-0.2 5.25 2.75 5.53q3 0.27 6.25-2.25c2.69-2.1 3.81-2.39 6.5-1.72 2.72 0.68 3.33 1.37 3.75 4.25 0.46 3.16 0.8 3.46 4.25 3.69 3.2 0.21 4.08-0.21 6-2.89 2.18-3.03 2.45-3.12 8.25-2.68 3.54 0.27 9.28 1.8 14 3.72 4.74 1.94 9.73 4.86 12.25 7.18 4.01 3.7 4.53 3.89 9.25 3.42 4.59-0.46 5.1-0.29 6.25 2.03 1.05 2.12 1.94 2.52 5.5 2.5 3.84-0.03 4.48 0.33 6.6 3.72 1.3 2.06 2.98 4.25 3.75 4.87 0.77 0.62 3.2 1.7 5.4 2.4 2.2 0.71 5.35 1.22 7 1.15 1.65-0.08 3.8-0.94 4.78-1.91 0.98-0.97 1.76-2.88 1.72-4.26-0.03-1.37 0.18-2.84 0.47-3.25 0.29-0.41 2.56 0.26 5.04 1.5 4.44 2.21 4.59 2.22 9.25 0.5 2.61-0.97 5.41-1.74 6.24-1.72 0.83 0.02 2.85-0.94 4.5-2.15 2.27-1.65 3.73-2.01 6-1.48 1.65 0.38 4.58 0.81 6.5 0.95 1.92 0.13 4.62 0.86 6 1.61 1.37 0.74 4.52 2.89 7 4.76 2.94 2.21 5.37 3.29 7 3.09 1.74-0.22 2.58-0.99 2.75-2.56 0.14-1.24-0.42-3.6-1.25-5.25-0.85-1.7-3.02-3.65-5-4.5-1.92-0.83-3.73-1.95-4-2.5-0.27-0.55-1.51-1.01-2.75-1.01-1.24-0.01-3.72-0.57-5.51-1.25-1.8-0.68-3.27-1.69-3.28-2.24 0-0.55 1.24-2.23 2.77-3.73 1.52-1.5 3.22-2.74 3.77-2.74 0.55-0.01 4.83 1.61 9.5 3.61 4.67 1.99 10.08 4.75 12 6.13 1.92 1.39 4.92 4.14 6.65 6.13 3.09 3.52 3.32 3.6 10.5 3.6 7.12 0 7.68 0.19 17.85 5.91 9.98 5.61 10.67 5.85 14 4.76 1.92-0.62 4.06-1.14 4.75-1.15 0.69-0.01 1.25 0.88 1.25 1.98 0 1.1 1.01 2.67 2.25 3.5 1.24 0.82 6.75 2.02 12.25 2.65 7.71 0.89 12.52 0.87 21-0.07 6.05-0.68 14.6-2.37 19-3.77 4.4-1.4 10.7-3.9 14-5.56 3.3-1.67 8.7-4.84 12-7.06 3.3-2.22 9.15-6.61 13-9.75 3.85-3.14 11.52-10.15 17.04-15.58 5.52-5.42 11.88-12.34 14.13-15.36 2.24-3.02 4.9-7.98 5.9-11 1.21-3.65 3.19-6.82 5.88-9.4 2.23-2.15 6.52-5.05 9.55-6.46 5.01-2.32 6.48-2.53 16.5-2.27 6.05 0.15 13.03 0.31 15.5 0.35 3.42 0.05 5.7-0.7 9.5-3.13 2.75-1.76 7.03-3.47 9.5-3.81 3.92-0.54 4.82-0.3 7 1.88 1.37 1.38 4.08 3.04 6 3.69 1.92 0.65 4.29 1.18 5.25 1.17 0.96-0.01 2.94-1.03 4.39-2.27 2.43-2.06 2.55-2.52 1.5-5.5-1.05-2.99-0.9-3.49 1.78-6.25 1.62-1.66 3.96-2.99 5.25-2.98 1.28 0.01 3.91-0.74 5.83-1.67 1.92-0.93 4.92-2.62 6.65-3.77 1.74-1.14 7.54-6.35 12.89-11.58 5.79-5.65 10.69-11.43 12.1-14.25 1.3-2.61 2.36-6.55 2.36-8.75 0-2.2-0.67-5.57-1.5-7.5-0.83-1.93-1.21-4.29-0.85-5.25 0.36-0.96 2.07-3.77 3.8-6.25 1.73-2.48 4.58-6.98 6.32-10 1.98-3.44 3.18-6.9 3.2-9.25 0.02-2.88 0.95-4.85 3.99-8.5 2.18-2.61 5.04-6.1 6.35-7.75 1.3-1.65 6.99-5.93 12.64-9.5 5.65-3.57 10.78-7.08 11.41-7.8 0.86-0.98 0.83-1.91-0.11-3.75-1.1-2.16-0.88-3.13 1.89-8.2 1.73-3.16 4.96-8.45 7.18-11.75 2.22-3.3 6.76-9.34 10.11-13.43 3.34-4.09 7.35-8.37 8.92-9.5 1.57-1.14 3.7-3.76 4.75-5.82 1.04-2.06 3.25-4.43 4.9-5.25 1.65-0.82 3.9-1.5 5-1.5 1.22 0 2.58 1.17 3.5 3 0.83 1.65 1.5 4.35 1.5 6 0 1.65-0.51 6.26-1.14 10.25-0.82 5.24-0.84 8.22-0.06 10.75 0.6 1.93 3.07 6.43 5.49 10 2.43 3.57 5.29 8.52 6.37 11 1.08 2.48 3.56 6.3 5.52 8.5 3.36 3.77 3.58 4.46 3.94 12.16 0.33 7.05 0.72 8.51 2.88 10.78 1.37 1.43 3.29 2.6 4.25 2.59 0.96-0.02 4.11-2.27 7-5 4.7-4.44 5.72-4.97 9.75-4.97 3.24 0 5.06-0.57 6.5-2.06 1.1-1.14 2.56-2.05 3.25-2.03 0.69 0.02 3.05-0.87 5.25-1.97 2.37-1.18 4.64-1.69 5.57-1.25 0.86 0.41 2.48 3.23 3.59 6.25 1.12 3.02 3.06 7.52 4.31 10 1.26 2.48 3.63 6.52 5.27 9 1.99 3.01 4.35 5.08 7.12 6.25 2.28 0.96 4.33 1.75 4.57 1.75 0.23 0 1.13-0.67 2-1.5 1.26-1.2 1.36-2.04 0.48-4.25-0.6-1.51-2.4-4.21-4-6-1.6-1.79-2.91-4.15-2.91-5.25 0-1.1-1.8-4.7-4-8-2.2-3.3-4-7.12-4-8.5 0-1.37 0.34-2.68 0.75-2.91 0.41-0.22 2.84 0.12 5.4 0.75 2.56 0.64 6.05 2.17 7.75 3.41 1.71 1.24 4.11 2.26 5.35 2.27 1.24 0.01 4.72-1.8 7.75-4.02 3.03-2.22 5.84-4.03 6.25-4.02 0.41 0.01 1.42 0.7 2.25 1.52 0.83 0.82 1.5 2.96 1.49 4.75 0 1.79-0.5 5.05-1.1 7.25-0.6 2.2-1.95 4.79-2.99 5.75-1.05 0.96-1.92 2.99-1.93 4.5-0.02 1.51 0.88 3.99 2 5.5 1.11 1.51 2.7 2.75 3.53 2.75 0.83 0 2.51 1.41 3.75 3.14 1.24 1.73 4.16 4.99 6.49 7.25 2.48 2.41 4.24 5.04 4.25 6.36 0.01 1.49-1.09 2.9-3.24 4.17-1.79 1.06-6.85 3.78-11.25 6.04-4.4 2.26-8.33 4.66-8.73 5.33-0.41 0.66-0.75 2-0.75 2.96-0.01 1.05 1.58 2.55 3.98 3.75 2.2 1.1 4 2.68 4 3.5 0 0.82-0.79 2.31-1.75 3.3-0.96 0.99-4 2.13-6.75 2.53-2.75 0.4-8.15 2.28-12 4.17-3.85 1.89-9.28 5.59-12.06 8.22-2.79 2.63-7.33 8.16-10.1 12.28-2.76 4.13-7.23 9.45-9.93 11.84-2.7 2.39-7.61 5.84-10.91 7.66-3.3 1.83-11.15 5.5-17.44 8.16-6.29 2.66-12.7 6.08-14.25 7.59-1.68 1.65-3.04 4.25-3.38 6.5-0.32 2.06-1.1 4.84-1.75 6.17-0.65 1.33-5.46 6.95-10.69 12.5-5.5 5.83-10.67 12.4-12.26 15.58-1.91 3.8-2.75 7.04-2.75 10.5 0 3.15-0.86 6.85-2.33 10-1.29 2.75-6.75 12.2-12.14 21-5.39 8.8-16.68 29.95-25.08 47-8.41 17.05-17.96 35.05-21.23 40-3.26 4.95-8.92 11.81-12.57 15.25-5 4.72-7 7.42-8.14 11-0.83 2.61-3.31 8.01-5.5 12-2.2 3.99-6.21 9.39-8.92 12-2.71 2.61-7.21 6.89-10 9.5-4.04 3.79-5.63 4.67-7.82 4.34-1.51-0.22-3.65-0.72-4.75-1.1-1.46-0.52-2.87 0.13-5.25 2.4-1.86 1.78-4.32 3.11-5.75 3.11-1.38 0-2.5-0.45-2.5-1 0-0.55-0.79-0.99-1.75-0.97-0.96 0.02-3.33 0.98-5.25 2.14-2.9 1.74-4.36 1.97-8.5 1.38l-5-0.72c-10.17 11.16-11.54 13.39-11.51 15.67 0.03 1.65-0.5 3.56-1.17 4.25-0.67 0.69-2.82 1.26-4.77 1.28-2.51 0.01-4.28-0.73-6.05-2.53-1.38-1.4-3.17-2.55-4-2.56-0.83 0-2.4 0.92-3.5 2.06-1.23 1.27-3.24 2.05-5.25 2.03-2.54-0.02-3.63-0.69-5-3.04-0.96-1.66-2.31-3.01-3-3-0.69 0-3.5-0.66-6.25-1.49l-5-1.5 1.25-13.5c-8.14-7.48-9.79-8.36-11.5-7.92-1.24 0.32-3.26 0.77-4.5 1-1.88 0.35-2.87-0.65-6-6.06-3-5.19-4.65-6.92-8.25-8.64-2.48-1.19-6.3-2.37-8.5-2.64-2.2-0.27-7.49-0.2-11.75 0.14-7.7 0.62-7.76 0.64-9.25 4.12-0.83 1.92-1.84 3.51-2.25 3.53-0.41 0.02-1.54-0.88-2.5-2l-1.75-2.03c-6.2 3.1-9.01 4.01-10.25 4.03-1.24 0.01-2.64-0.32-3.13-0.75-0.48-0.43-4.31-2.13-8.51-3.78-4.2-1.65-9.65-4.66-12.12-6.69-2.47-2.03-6.51-4.42-8.99-5.32-2.48-0.89-6.52-1.68-9-1.76-2.48-0.07-9 0.37-14.5 0.99-5.59 0.62-12.62 2.14-15.93 3.45-3.37 1.32-8.38 4.49-11.59 7.33-3.12 2.75-7.24 7.25-9.17 10-1.92 2.75-5.48 6.65-7.9 8.67-2.43 2.02-5.76 4.37-7.41 5.22-2.65 1.37-3.26 1.38-5.25 0.08-1.24-0.81-2.92-1.24-3.75-0.97-0.83 0.27-1.5 1.4-1.5 2.5 0 1.1-0.79 2.28-1.75 2.62-0.96 0.34-2.76 0.34-4 0-1.38-0.38-2.25-1.4-2.25-2.62 0-1.12 1.65-3.29 3.75-4.94 3.68-2.88 3.72-2.99 2.22-5.75-1.14-2.09-3.2-3.38-8-5.05-3.56-1.23-6.89-2.13-7.4-2-0.51 0.13 0.73 1.93 2.75 3.99 2.02 2.06 4.13 3.75 4.68 3.75 0.55 0 1-0.45 1-1 0-0.55 0.67-1 1.5-1 0.83 0 1.95 0.9 2.5 2 0.84 1.67 0.55 2.22-1.75 3.36-1.51 0.75-3.31 2.78-4 4.5-1.04 2.61-1 3.56 0.25 5.64 1.02 1.7 2.7 2.69 5.25 3.08 3.11 0.49 4.18 0.16 6.25-1.89 1.88-1.86 3.24-2.36 5.5-2 2.34 0.37 4.42-0.48 9.47-3.86 3.68-2.46 8.2-6.67 10.5-9.77 2.21-2.99 6.28-7.64 9.03-10.33 2.75-2.69 7.48-6.06 10.5-7.48 3.61-1.7 8.59-2.93 14.5-3.58 4.95-0.54 11.25-0.99 14-0.98 2.75 0.01 6.8 0.46 9 1 2.2 0.54 6.92 3 10.5 5.47 3.58 2.46 9.99 5.91 14.25 7.66 4.26 1.75 9.44 3.18 11.5 3.19 2.06 0 4.76-0.67 6-1.5 2.03-1.36 2.56-1.34 5.33 0.24 3.03 1.72 3.11 1.71 5.29-0.75 1.22-1.37 2.43-3.09 2.68-3.82q0.45-1.32 8.45-1.87c5.49-0.37 9.57-0.08 13 0.91 4.26 1.24 5.46 2.17 8.11 6.36 1.71 2.71 4.3 6.16 5.75 7.67 2.31 2.41 3.2 2.69 7.14 2.25 4.08-0.45 4.79-0.2 7.61 2.75 2.97 3.12 3.07 3.5 2.43 9.25-0.6 5.44-0.45 6.2 1.65 8.13 1.34 1.24 4.3 2.39 7.06 2.75 3.55 0.46 5.04 1.19 5.9 2.87 0.63 1.24 1.64 2.58 2.25 2.98 0.6 0.41 2.9 0.74 5.1 0.73 2.4 0 5-0.77 6.5-1.93 2.5-1.92 2.5-1.92 5.32 0.78 2.06 1.97 3.84 2.69 6.67 2.69 2.75 0 4.59-0.71 6.44-2.5 1.72-1.66 2.75-3.93 3.08-6.75 0.37-3.18 0.99-4.38 2.49-4.75 1.1-0.27 3.12-2.08 4.5-4 2.41-3.38 2.67-3.48 7.25-2.85 3.65 0.5 5.44 0.23 7.75-1.15 2.56-1.54 3.44-1.62 6-0.57 2.47 1.02 3.53 0.97 6-0.24 1.65-0.82 3.9-2.42 5-3.56 1.51-1.57 2.43-1.84 3.75-1.11 0.96 0.54 2.99 0.98 4.5 0.99 1.51 0 3.87-0.75 5.25-1.66 1.37-0.92 4.94-3.96 7.93-6.76 2.99-2.8 6.81-6.48 8.5-8.18 1.69-1.69 4.77-5.97 6.85-9.5 2.07-3.52 4.77-9.08 6-12.34 1.75-4.69 3.91-7.63 10.27-14 4.73-4.75 10-11.36 12.81-16.07 2.63-4.4 9.27-17.23 14.76-28.5 5.48-11.27 12.28-25 15.1-30.5 2.83-5.5 8.9-16.08 13.51-23.5 4.6-7.42 9.72-16.2 11.38-19.5 1.96-3.93 3.26-8.42 3.76-13 0.53-4.87 1.63-8.52 3.64-12 1.58-2.75 6.96-9.29 11.94-14.53 4.98-5.24 9.84-11.2 10.8-13.25 0.96-2.05 1.75-4.84 1.75-6.22 0-1.37 1.06-3.51 2.36-4.75 1.3-1.24 4.57-3.24 7.25-4.45 2.69-1.21 8.72-3.84 13.39-5.84 4.67-1.99 10.97-5.14 14-6.98 3.03-1.84 7.38-5.29 9.67-7.67 2.3-2.37 5.79-6.79 7.77-9.81 1.97-3.02 6-7.98 8.95-11 2.94-3.02 8-6.94 11.23-8.69 3.23-1.76 8.8-3.89 12.38-4.75 3.73-0.9 7.47-2.52 8.78-3.81 1.25-1.24 2.27-3.37 2.27-4.75 0-1.37-1.02-3.45-2.27-4.6-1.26-1.16-3.07-2.39-4.03-2.75-0.96-0.36-1.59-0.99-1.39-1.4 0.21-0.41 5.16-3.11 11-6 8.17-4.03 10.99-5.95 12.14-8.25 0.83-1.65 1.49-3.79 1.48-4.75-0.02-0.96-1.95-3.55-4.31-5.75-2.35-2.2-5.46-5.57-6.89-7.5-1.93-2.59-2.48-4.28-2.1-6.5 0.37-2.14-0.13-3.86-1.74-6-2.06-2.75-2.15-3.39-1.09-7.75 0.63-2.61 1.16-6.44 1.18-8.5 0.01-2.61-0.67-4.43-2.25-5.98-1.26-1.22-3.07-2.24-4.03-2.25-0.96-0.01-2.76 0.5-4 1.13-1.24 0.63-3.71 2.43-5.5 4-1.79 1.57-3.92 2.85-4.75 2.85-0.83 0-2.74-1.02-4.25-2.26-1.51-1.24-5.22-2.88-8.25-3.63-4.19-1.04-6.04-1.1-7.75-0.24-1.24 0.62-2.53 2.37-2.87 3.88-0.39 1.73-0.01 3.86 1.04 5.75 0.91 1.65 2.21 3.95 2.87 5.12 0.67 1.17 1.99 2.97 2.93 4 0.95 1.03 1.74 2.89 1.75 4.13 0.02 1.24 1.38 3.82 3.03 5.75 1.65 1.93 2.89 4.17 2.75 5-0.21 1.27-0.7 1.22-3.25-0.36-1.65-1.02-4.91-5.07-7.25-9-2.34-3.93-4.92-9.62-5.75-12.64-1.02-3.75-2.37-6.15-4.25-7.53-1.51-1.12-3.2-2.02-3.75-2-0.55 0.02-3.47 1.05-6.5 2.29-3.03 1.24-6.63 3.04-8 4-1.71 1.2-3.45 1.56-5.5 1.14-2.61-0.54-3.84 0.11-9.5 5.03-3.58 3.11-6.84 5.63-7.25 5.61-0.41-0.02-1.28-1.05-1.92-2.29-0.65-1.24-1.32-5.85-1.49-10.25-0.3-7.58-0.51-8.2-3.83-11.75-1.93-2.06-4.89-6.56-6.57-10-1.68-3.44-4.32-7.82-5.86-9.75-1.55-1.93-3.56-5.3-4.46-7.5-1.39-3.37-1.48-4.94-0.54-10 0.61-3.3 1.35-7.35 1.63-9 0.29-1.65-0.09-4.73-0.84-6.84-0.76-2.12-2.4-4.82-3.66-6-1.89-1.79-2.93-2.03-6-1.4-2.04 0.41-4.72 1.43-5.96 2.25-1.24 0.82-3.38 3.29-4.75 5.49-1.38 2.2-3.4 4.45-4.5 5-1.1 0.55-5.08 4.71-8.84 9.25-3.76 4.54-8.65 10.95-10.86 14.25-2.22 3.3-5.44 8.81-7.16 12.25-2.01 4.01-2.96 7.15-2.64 8.75 0.28 1.38-0.06 3.22-0.75 4.11-0.69 0.88-5.05 3.69-9.7 6.25-5.5 3.02-9.69 6.17-12 9.02-1.95 2.41-5.47 6.68-7.82 9.5-3.67 4.4-4.26 5.75-4.22 9.62 0.04 3.28-0.5 5.04-2.01 6.5-1.14 1.1-2.05 2.45-2.03 3 0.01 0.55-1.78 3.7-3.99 7-2.21 3.3-4.26 7.35-4.56 9-0.32 1.74 0.15 4.68 1.12 7 1.07 2.57 1.45 5.25 1.06 7.5-0.33 1.93-1.96 5.52-3.61 8-1.66 2.48-7.84 8.93-13.75 14.35-6.24 5.73-11.94 10.13-13.61 10.5-1.58 0.36-3.04 0.99-3.25 1.4-0.21 0.41-1.51 0.75-2.88 0.75-1.38 0-3.68 0.79-5.13 1.75-1.45 0.96-3.28 3.1-4.08 4.75-1.11 2.3-1.2 3.64-0.37 5.75 0.91 2.31 0.8 2.85-0.67 3.39-0.96 0.36-3.33 0.36-5.25 0-1.92-0.36-4.63-1.76-6-3.11-1.38-1.35-3.85-2.75-5.5-3.11-1.65-0.36-4.58-0.17-6.5 0.43-1.92 0.59-5.3 2.32-7.5 3.83-3.96 2.72-4.16 2.75-20.5 2.78-15.15 0.04-16.91 0.23-21.5 2.37-2.75 1.28-6.35 3.49-8 4.91-1.65 1.42-4.27 4.19-5.81 6.17-1.55 1.97-3.25 5.39-3.77 7.59-0.52 2.2-2.1 5.58-3.49 7.5-1.4 1.92-6.45 7.53-11.24 12.45-4.78 4.92-12.82 12.57-17.87 17-5.05 4.43-13.14 10.53-17.99 13.55-4.84 3.02-12.63 7.01-17.32 8.85-4.68 1.84-12.34 4.03-17.01 4.86-6.11 1.08-12.01 1.35-21 0.93-6.88-0.32-13.4-0.85-14.5-1.19-1.1-0.33-2.92-2.04-4.04-3.78-1.48-2.3-2.71-3.11-4.5-2.97-1.35 0.11-3.81 0.52-5.46 0.91-2.46 0.57-4.08 0-9-3.15-3.3-2.11-8.25-4.87-11-6.12-4.26-1.94-5.82-2.16-10.5-1.47-4.9 0.72-5.66 0.59-7-1.23-0.83-1.12-2.85-3.33-4.5-4.91-1.65-1.58-7.05-4.86-12-7.29-4.95-2.43-10.58-4.7-12.5-5.05-1.96-0.36-4.49-0.15-5.75 0.48-1.24 0.62-3.38 2.71-4.75 4.63-2.32 3.25-2.39 3.68-1 6 0.96 1.6 3.02 2.89 5.75 3.58 2.34 0.6 6.21 2.06 8.62 3.25 2.4 1.2 5.1 3.19 6 4.45 0.89 1.25 1.28 2.6 0.86 3-0.42 0.39-2-0.29-3.5-1.53-1.5-1.24-4.98-3.58-7.73-5.21-3.86-2.28-6.7-3.09-12.5-3.56-6.41-0.52-7.77-0.35-9.38 1.2-1.03 1-3.96 2.18-6.5 2.61-2.54 0.44-5.97 1.03-7.62 1.32-1.86 0.33-3.86-0.07-5.25-1.04-1.24-0.86-2.81-1.58-3.5-1.6-0.69-0.02-2.03 0.77-2.97 1.75-0.95 0.98-1.74 3.02-1.75 4.53-0.02 1.99-0.65 2.92-2.28 3.35-1.24 0.33-4.23 0-6.65-0.75-3.19-0.98-5.46-2.66-8.25-6.1-3.27-4.03-4.38-4.75-7.35-4.75-2.67 0-3.86-0.6-5-2.5-1.32-2.2-2.19-2.5-7.25-2.51-5.17-0.02-6.11-0.36-9.25-3.4-1.92-1.86-6.88-4.83-11-6.61-5.39-2.32-9.61-3.38-15-3.76-7.29-0.5-7.61-0.43-11.25 2.63-2.06 1.73-4.2 2.92-4.75 2.65-0.55-0.27-1-1.62-1-3 0-1.48-0.92-3.12-2.25-4.01-1.24-0.83-3.38-1.51-4.75-1.51-1.38 0-4.3 0.91-6.5 2.02-2.2 1.11-4.45 2.01-5 2.01-0.55 0-1-2.14-1-4.76v-4.75c-6.77-0.46-8.55 0-9.78 1.23-0.98 0.97-1.75 1.32-1.72 0.77 0.04-0.55 0.69-3.48 1.44-6.5 1.16-4.65 1.17-6.12 0.01-9.5-0.75-2.2-1.38-5.01-1.41-6.25-0.02-1.24-0.94-3.15-2.04-4.25-1.43-1.43-2.86-1.86-5-1.5-2.43 0.41-5.22-0.85-14.75-6.64-6.46-3.93-14.23-8.82-17.25-10.86-3.02-2.04-8.15-6.14-11.39-9.11-3.24-2.96-9.58-10.34-14.08-16.39-4.51-6.05-10.18-12.7-12.61-14.79-2.43-2.08-9.78-6.58-16.34-10-8.79-4.58-12.94-7.39-15.79-10.71-3.02-3.53-3.85-5.31-3.82-8.25 0.01-2.06-0.85-6.11-1.93-9-1.08-2.89-4.52-9.3-7.64-14.25-3.13-4.95-7.91-12.6-10.62-17-4.82-7.81-4.91-8.1-3.73-12 0.66-2.2 0.98-5.35 0.71-7-0.26-1.65-2.17-5.7-4.24-9-2.07-3.3-6.09-8.93-8.93-12.5-2.84-3.57-7.22-9.43-9.74-13-2.51-3.57-8.76-13.48-13.87-22-5.12-8.52-11.57-18.88-14.34-23-2.77-4.12-8.01-11.32-11.65-16-3.64-4.68-8.57-11.87-10.96-16-2.79-4.83-8.14-11.42-15.02-18.5-5.88-6.05-13.34-14.18-16.6-18.06-3.25-3.88-7.71-9.71-9.91-12.95-2.2-3.24-6.02-8-8.5-10.58-4-4.18-5.11-4.77-10-5.33-4.56-0.53-6.7-1.53-12.51-5.86-3.85-2.87-10.15-6.87-14-8.89-3.84-2.01-12.17-5.44-18.49-7.61-6.32-2.18-13.75-5.08-16.5-6.47-2.75-1.38-6.5-4.03-8.34-5.88-1.83-1.85-4.26-5.17-5.39-7.37-1.13-2.2-2.69-5.8-3.47-8-0.78-2.2-2.25-8.05-3.27-13-1.01-4.95-3.14-12.38-4.73-16.5-1.59-4.13-5.31-11.1-8.26-15.5-2.94-4.4-8.14-11.6-11.55-16-3.41-4.4-9.08-10.67-12.59-13.93-3.52-3.27-10-8.28-14.4-11.15-4.4-2.86-10.93-6.62-14.5-8.35-3.57-1.74-7.77-4.37-9.33-5.86-1.56-1.49-4.74-5.41-7.08-8.71-2.34-3.3-5.01-6.34-5.92-6.75-0.92-0.41-2.46-0.75-3.42-0.76-0.96 0-2.76 0.67-4 1.5zm-1.94 42.92c-0.5 0.78-1.29 2.91-1.76 4.75-0.65 2.58-0.35 4.42 1.31 8.09 1.38 3.07 2.94 4.96 4.39 5.33 1.41 0.37 2.81-0.02 3.75-1.04 0.96-1.03 1.55-3.86 1.64-7.83 0.08-3.78-0.41-7.09-1.25-8.46q-1.39-2.25-4.28-2.25c-1.59 0-3.3 0.63-3.8 1.41zm-4.76 38.59c-0.3 0.55-0.05 2.01 0.57 3.25 0.63 1.27 0.83 3.78 0.47 5.75-0.36 1.93-1.15 7.1-1.76 11.5-0.6 4.4-0.81 9.24-0.46 10.75 0.35 1.51 1.75 4.1 3.13 5.75 1.49 1.79 4.11 3.4 6.5 4 3.45 0.86 4.07 1.44 4.53 4.25 0.3 1.79 0.07 4.49-0.5 6-0.57 1.51-1.05 5.11-1.07 8-0.02 2.89-0.64 7.72-1.38 10.75-0.74 3.03-1.13 6.85-0.87 8.5 0.25 1.65 1.14 5.25 1.96 8 1.35 4.5 1.35 5.38-0.08 8.75-0.88 2.06-1.59 5.78-1.59 8.25 0 2.64-0.89 6.25-2.17 8.75-1.19 2.34-5.04 7.18-8.56 10.75-4.35 4.43-7.76 9.21-10.7 15-2.37 4.68-6.36 14.57-8.86 22-2.5 7.43-6.42 19.57-8.7 27-2.82 9.19-4.37 16.35-4.83 22.42l-0.68 8.93c-10.5 12.64-13.08 16.81-14.05 20.15-0.81 2.75-1.47 6.35-1.47 8 0 1.65 0.57 5.57 1.26 8.72 1.05 4.77 1.59 5.68 3.26 5.5 1.82-0.2 1.97 0.28 1.68 5.28-0.17 3.02-1 9.1-1.84 13.5-0.83 4.4-2.34 10.7-3.33 14-1 3.3-2.8 8.48-4.01 11.5-1.2 3.02-4.04 8.65-6.3 12.5-2.27 3.85-7.12 10.15-10.79 14-5.24 5.51-9.46 8.6-19.77 14.5-7.94 4.54-13.51 8.39-14.12 9.75-0.56 1.24-1.02 3.6-1.02 5.25 0 2.1 1.06 4.06 3.5 6.5 1.92 1.92 3.5 4.4 3.5 5.5q0 2 3.5 3.5c1.92 0.83 3.5 1.95 3.5 2.5 0 0.55-0.68 3.92-1.5 7.5-1.35 5.84-1.34 6.83 0.06 9.75 1.28 2.67 1.44 5.47 0.89 15.75-0.39 7.26-0.27 13.97 0.29 16 0.71 2.55 0.58 4.86-0.47 8.5-0.8 2.75-1.84 8.6-2.33 13-0.48 4.4-0.97 8.9-1.09 10-0.11 1.1-0.13 4.14-0.03 6.75 0.18 4.64 0.25 4.74 2.93 4.13 2.41-0.54 2.65-0.39 1.9 1.25-0.47 1.03-1.09 4.57-1.37 7.87-0.48 5.61-0.32 6.18 2.35 8.79 1.58 1.53 3.32 2.77 3.87 2.76 0.55-0.02 2.09-0.83 3.43-1.79l2.43-1.76c-1.05 7.75-1.7 11.75-2.11 13.89-0.68 3.54-0.57 3.85 1.25 3.48 1.27-0.25 2.09-1.31 2.24-2.88 0.13-1.37 0.47-5.53 0.75-9.24 0.37-4.84 0.16-6.91-0.74-7.33-0.69-0.32-2.71 0.13-4.5 1l-3.25 1.58c-2.99-6.98-3.04-8.26-1.96-13 0.7-3.02 1.31-5.95 1.36-6.5 0.06-0.55-0.91-1-2.14-1-1.58 0-2.24-0.59-2.23-2 0-1.1-0.57-2.57-1.26-3.27-1.03-1.03-0.91-1.9 0.59-4.5 1.42-2.48 1.71-4.39 1.25-8.23-0.44-3.76-0.05-6.49 1.58-11 1.9-5.25 2.02-6.53 0.99-10.25-0.65-2.34-1.18-5.94-1.17-8 0-2.06 0.56-6.35 1.25-9.53 1.08-5.04 1.01-6.64-0.58-12.5-1.57-5.79-1.66-7.48-0.62-12.22 0.67-3.02 0.95-6.63 0.64-8-0.36-1.56-1.82-3.06-3.89-4-1.82-0.83-3.47-2.4-3.66-3.5-0.19-1.1-1.65-3.24-3.25-4.75-1.59-1.51-2.91-3.76-2.92-5-0.01-1.24 0.56-3.01 1.25-3.95 0.7-0.93 4.87-3.58 9.27-5.89 4.4-2.31 10.47-5.86 13.5-7.9 3.02-2.04 8.42-6.89 12-10.78 3.57-3.89 8.34-10.38 10.59-14.4 2.26-4.03 5.35-10.48 6.88-14.33 1.52-3.85 3.92-11.95 5.31-18 1.58-6.81 2.58-14.24 2.63-19.5 0.09-8.1-0.01-8.51-2.16-8.75-1.75-0.19-2.39-1.08-2.89-4-0.35-2.06-0.4-6-0.12-8.75 0.29-2.75 1.43-6.8 2.54-9 1.12-2.2 4.23-6.48 6.92-9.5l4.9-5.5c1.15-16.29 2.64-22.28 8.43-40.5 3.94-12.38 8.18-25.2 9.43-28.5 1.24-3.3 3.74-8.93 5.55-12.5 1.81-3.57 5.86-9.2 9.02-12.5 3.15-3.3 7.11-8.25 8.79-11 2.15-3.52 3.37-7.23 4.12-12.5 0.59-4.13 1.33-9.07 1.64-11 0.37-2.22 0-4.69-1-6.75-0.87-1.79-1.58-5.16-1.59-7.5 0-2.34 0.63-6.72 1.41-9.75 0.77-3.03 1.39-7.53 1.37-10-0.01-2.47 0.31-6.53 0.73-9 0.49-2.86 0.35-5.32-0.37-6.75-0.62-1.24-3.24-3.26-5.82-4.5-2.58-1.24-5.55-3.38-6.61-4.75-1.77-2.31-1.83-3.15-0.77-11 0.62-4.68 1.39-10.3 1.7-12.5 0.31-2.2 0.3-5.46-0.03-7.25-0.35-1.9-1.2-3.25-2.05-3.25-0.8 0-1.7 0.45-2 1zm1191.95 59.38c-1.65 0.71-5.47 3.02-8.5 5.13-3.03 2.11-6.78 5-8.34 6.42-1.56 1.41-3.65 4.14-4.65 6.07-0.99 1.93-1.94 4.4-2.11 5.5-0.17 1.1-0.02 3.12 0.33 4.5 0.35 1.37 1.91 3.12 3.46 3.87 1.54 0.76 3.93 1.96 5.31 2.69 1.56 0.82 3.07 0.98 4 0.43 0.94-0.54 1.99-0.43 2.79 0.32 0.72 0.65 1.28 1.98 1.25 2.94-0.02 0.96 2.66 4.45 5.96 7.75 4.41 4.41 6.73 6 8.75 6.01 1.67 0 4.91-1.61 8.25-4.1 3.03-2.26 5.72-4.32 6-4.59 0.28-0.26 0.39-2.13 0.25-4.15-0.18-2.66-1.21-4.64-3.74-7.17-1.91-1.93-3.5-4.4-3.53-5.5-0.02-1.1-0.93-3.46-2.01-5.25-1.87-3.09-1.89-3.49-0.37-8 0.89-2.63 1.34-5.97 1-7.5-0.33-1.51-1.5-3.65-2.6-4.75-1.21-1.21-3.29-1.98-5.25-1.96-1.79 0.02-4.6 0.62-6.25 1.34zm-68.61 41.9c-1.31 0.53-6.67 2.5-11.89 4.38-5.22 1.88-10.54 4.41-11.8 5.63-1.44 1.38-2.19 3.11-2 4.61 0.16 1.32 1.04 2.89 1.95 3.5 1.31 0.87 3.31 0.28 9.5-2.79 4.32-2.14 9.88-4.49 12.35-5.23 2.47-0.74 5.96-2.26 7.75-3.36 2.3-1.43 3.18-2.67 3-4.23-0.18-1.59-1.12-2.39-3.36-2.84-1.71-0.34-4.18-0.2-5.5 0.33zm27.51 19.57c-2.8 0.91-5.86 2.33-6.79 3.15-0.93 0.82-1.68 2.06-1.65 2.75 0.02 0.69 1.28 1.99 2.79 2.9 2.37 1.42 3.37 1.48 7.25 0.41 2.47-0.68 5.74-2.1 7.25-3.15 1.51-1.05 2.76-2.7 2.78-3.66 0.01-0.96-1.11-2.31-2.5-3-1.39-0.69-2.87-1.2-3.28-1.15-0.41 0.06-3.04 0.85-5.85 1.75zm-54.51 12.33c-1.32 2.85-2.84 5.34-3.39 5.54-0.55 0.19-1.34-0.57-1.75-1.69-0.41-1.11-1.44-2.03-2.27-2.03-0.84 0-2.64 0.9-4 2l-2.48 2c-5.92-4.36-6.28-4.4-8.8-2.93-2.17 1.25-2.62 2.14-2.3 4.5 0.23 1.61 0.45 4.05 0.5 5.43 0.08 1.9-0.38 2.47-1.9 2.39-1.1-0.06-2.6-0.28-3.34-0.5-0.74-0.21-2.31 0.88-3.5 2.43-1.5 1.96-2.12 4.11-2.03 7 0.08 2.3 0.86 5.64 1.75 7.43 0.89 1.79 2.52 3.7 3.62 4.25 1.1 0.55 3.24 0.79 4.75 0.53 1.54-0.26 6.26-3.59 10.75-7.58 4.4-3.91 8.4-8.09 8.89-9.28 0.48-1.19 2.73-3.1 5-4.23 3.19-1.59 4.45-3 5.61-6.26 1.4-3.92 1.75-4.2 5.25-4.19 2.43 0.01 4.46-0.7 5.75-1.99 1.56-1.56 1.78-2.44 1-4q-1-1.99-2.75-1.39c-0.96 0.33-3.21 1.01-5 1.5-1.79 0.49-3.89 1.9-4.68 3.14-0.79 1.24-1.68 3.37-1.99 4.75-0.3 1.37-1.32 3.18-2.26 4-0.94 0.82-3.08 1.75-4.76 2.05-2.52 0.45-3.06 1.02-3.06 3.25 0 1.93-0.87 3.25-3 4.59-1.65 1.03-4.8 3.76-7 6.07-2.2 2.31-5.35 4.9-7 5.74-2.88 1.48-3.09 1.44-5.25-1.08-1.52-1.77-2.25-3.92-2.25-6.62 0-2.2 0.45-4.9 1-6 0.55-1.1 1.45-2 2-2 0.55 0 0.99 0.79 0.98 1.75-0.01 0.96 0.56 2.29 1.25 2.96 0.86 0.82 1.83 0.9 3.02 0.25 0.96-0.53 2.2-2.53 2.75-4.46q1-3.5 0-5.5c-0.55-1.1-1-2.9-1-4 0-1.22 0.68-2.02 1.75-2.04 0.96-0.03 2.42 0.67 3.25 1.54 0.82 0.87 2.29 1.57 3.25 1.54 0.96-0.02 2.54-0.94 3.5-2.05 0.96-1.1 2.09-2 2.5-2 0.41 0.01 0.73 0.57 0.71 1.26-0.03 0.69 0.66 1.93 1.52 2.75 1.41 1.34 1.85 1.23 4.1-1 1.39-1.38 2.87-3.85 3.31-5.5q0.78-3 2.44-2.75c0.92 0.14 1.67-0.2 1.67-0.75 0-0.55-0.22-1.68-0.5-2.5-0.28-0.82-1.11-1.5-1.86-1.5-0.75 0-2.44 2.33-3.75 5.18zm67.11 19.32c-2.47 1.33-5.74 2.43-7.25 2.45-1.51 0.03-4.08-0.74-5.7-1.7-2.82-1.67-3.06-1.67-5.04 0-1.15 0.96-3.08 1.76-4.3 1.77-1.22 0.01-2.76-0.56-3.44-1.25-1-1.02-1.97-0.94-5 0.41-2.07 0.93-5.57 1.98-7.77 2.34-2.2 0.37-5.23 1.41-6.73 2.32-1.5 0.91-3.19 2.67-3.75 3.91-0.77 1.71-0.66 2.61 0.48 3.75 0.82 0.82 2.74 1.55 4.25 1.62 1.51 0.06 3.2 0.05 3.75-0.03 0.55-0.07 3.03 2.2 5.5 5.06 2.47 2.87 5.96 5.8 7.75 6.53 2.8 1.14 3.25 1.81 3.25 4.82 0 2.77 0.67 4.01 3.25 5.97 1.79 1.36 4.49 2.49 6 2.5 1.51 0.02 3.93-0.53 5.37-1.22 1.44-0.69 3.31-2.6 4.16-4.25 0.84-1.65 3.85-5.93 6.69-9.5 2.85-3.59 6.38-9.63 7.9-13.5 2.44-6.24 2.6-7.31 1.44-9.88-0.72-1.59-2.1-3.27-3.06-3.75-0.96-0.48-2.09-0.85-2.5-0.82-0.41 0.02-2.78 1.12-5.25 2.45zm-1133.03 41.26c-2.21 1.11-3.56 2.56-3.72 3.99-0.16 1.48 0.69 2.95 2.5 4.28 1.51 1.12 3.31 2.02 4 2 0.69-0.01 2.6 0.87 4.25 1.97 1.65 1.1 3.88 3.69 4.96 5.75 1.08 2.06 2.66 5.32 3.52 7.25 0.85 1.93 2.33 5.03 3.29 6.89 0.95 1.86 2.74 4.45 3.98 5.75 1.24 1.3 2.75 2.25 3.36 2.11 0.61-0.14 1.74-1.15 2.51-2.25 1.25-1.78 1.04-2.7-1.95-8.5-1.84-3.57-3.7-8.75-4.12-11.5-0.43-2.82-2.03-6.85-3.66-9.25-1.59-2.34-4.13-4.79-5.64-5.44-1.51-0.66-3.43-1.73-4.25-2.39-0.83-0.65-2.41-1.46-3.53-1.79-1.11-0.34-3.58 0.17-5.5 1.13zm1092.98 18.29c-0.85 0.54-3.9 5.59-6.78 11.22-4.22 8.26-5.33 11.48-5.76 16.73-0.45 5.44-0.21 7.03 1.52 9.75 1.14 1.79 2.74 3.25 3.57 3.25 0.82 0 2.29-0.39 3.25-0.86 0.96-0.47 3.29-3.51 5.17-6.75 1.89-3.24 3.37-6.79 3.29-7.89-0.07-1.1 0.53-4.25 1.34-7 0.81-2.75 1.47-7.36 1.46-10.25-0.01-3.91-0.52-5.76-2.01-7.25-1.1-1.1-2.34-1.99-2.75-1.97-0.41 0.02-1.45 0.48-2.3 1.02zm-1055.37 2.03c-1.19 0.63-1.86 1.95-1.75 3.47 0.09 1.35 1.2 3.24 2.46 4.2 1.26 0.96 5.31 2.54 9 3.5 5.72 1.49 6.82 2.14 7.46 4.4 0.41 1.45 1.76 3.03 3 3.5 2 0.76 2.18 1.32 1.62 5.1-0.47 3.19-0.22 4.69 1 6 0.9 0.96 2.56 1.75 3.71 1.75 1.14 0 3.39-1.35 5-3 2.38-2.45 2.93-3.87 2.95-7.75 0.03-4.11 0.19-4.48 1.2-2.75 0.64 1.1 1.19 3.12 1.22 4.5 0.03 1.37 0.5 2.44 1.05 2.36 0.55-0.08 2.69 0.71 4.75 1.75 2.06 1.04 4.06 2.45 4.43 3.14 0.38 0.69 1.04 2.82 1.46 4.75 0.5 2.25 0.23 5.82-0.75 10-0.84 3.57-2.4 7.74-3.46 9.25-1.4 1.99-1.72 3.49-1.18 5.44 0.41 1.47 2.17 3.61 3.9 4.75 1.74 1.13 4.77 4.54 6.73 7.56 1.97 3.02 3.59 6.51 3.6 7.75 0.01 1.36-1.66 3.85-4.23 6.31-2.41 2.3-6.63 4.93-9.75 6.07-3.03 1.11-8.43 2.23-12 2.48-3.58 0.26-7.05 1.01-7.73 1.68-0.68 0.66-1.83 3.23-2.55 5.71-0.96 3.28-2.25 5.09-4.77 6.69-1.9 1.2-4.58 3.08-5.95 4.18-2.35 1.87-2.4 2.1-0.83 3.81 1.61 1.76 1.69 1.75 2.23-0.18 0.32-1.15 2.8-3.08 5.83-4.54 4.86-2.34 5.31-2.85 5.77-6.58 0.27-2.22 1.17-4.81 2-5.76 0.9-1.03 2.9-1.69 5-1.66 1.92 0.03 6.2-0.66 9.5-1.52 3.3-0.86 8.21-2.77 10.91-4.25 2.78-1.53 6.02-4.39 7.5-6.62 1.42-2.16 2.59-5.14 2.59-6.63 0-1.51-1.75-5.24-4-8.5-2.2-3.19-5.35-6.58-7-7.53-1.65-0.94-3.34-2.44-3.75-3.31-0.48-1.02 0.16-2.95 1.77-5.35 1.39-2.06 3.02-6 3.63-8.75 0.61-2.75 0.81-7.02 0.46-9.5-0.35-2.48-1.54-5.96-2.63-7.75-1.33-2.19-3.3-3.66-6-4.5-3.63-1.13-4.02-1.57-4-4.5 0.01-1.79-0.66-3.93-1.48-4.75-0.83-0.82-2.08-1.5-2.8-1.5-0.71 0-1.85 0.56-2.52 1.25-0.67 0.69-1.2 3.05-1.19 5.25 0.01 2.2-0.65 5.01-1.48 6.25-0.83 1.24-2.52 2.26-3.76 2.27-2.11 0.01-2.2-0.26-1.5-4.5 0.72-4.36 0.59-4.72-4-10.18-2.61-3.11-6.55-7.59-8.75-9.96-2.99-3.21-4.76-4.3-7-4.31-1.65-0.01-3.86 0.45-4.92 1.01zm-0.63 12.13c-0.85 0.71-2.09 2.08-2.75 3.04-0.84 1.22-0.9 2.35-0.2 3.75 0.57 1.13 1.98 1.99 3.25 1.97 1.24-0.02 3.71-0.92 5.5-2 1.79-1.08 3.27-2.53 3.29-3.22 0.03-0.69-0.53-1.78-1.25-2.42-0.71-0.64-2.42-1.45-3.79-1.79-1.47-0.37-3.14-0.09-4.05 0.67zm7.36 11.04c-3.71 3.8-6.38 8.01-9.68 15.25-2.51 5.5-4.83 11.57-5.16 13.5-0.32 1.93-1.29 5.98-2.14 9-0.88 3.15-1.24 6.57-0.84 8 0.39 1.37 1.58 3.62 2.64 5 1.07 1.37 1.92 2.84 1.9 3.25-0.01 0.41-2.06 2.77-4.53 5.25-2.93 2.93-4.5 5.37-4.5 7 0 1.37 0.93 6.21 2.07 10.75 1.14 4.54 2.5 9.82 3.01 11.75 0.51 1.93 1.49 4.08 2.17 4.79 0.69 0.72 1.81 1.28 2.5 1.25 0.69-0.02 4.06 1.31 7.5 2.96 3.44 1.65 7.49 3 9 3 2.19 0 2.87-0.56 3.33-2.75 0.32-1.51 0.32-2.98-0.01-3.25-0.32-0.27-1.6 0.06-2.83 0.76-1.45 0.81-3.13 0.96-4.74 0.42-1.38-0.46-4.87-1.92-7.77-3.26-2.89-1.33-5.25-2.87-5.24-3.42 0.01-0.55-1.12-4.6-2.5-9-1.39-4.4-2.52-9.69-2.51-11.75 0.02-2.98 0.84-4.63 3.98-8 2.18-2.34 3.98-5.15 4-6.25 0.01-1.1-0.87-3.35-1.96-5-1.09-1.65-1.99-4.13-2-5.5-0.01-1.38 0.6-4.52 1.35-7 0.76-2.48 1.86-6.52 2.45-9 0.59-2.48 2.63-7.88 4.53-12 1.9-4.13 5.76-10.31 8.56-13.75 2.81-3.44 5.11-6.48 5.11-6.75 0-0.27-0.58-0.5-1.29-0.5-0.7 0-3.59 2.36-6.4 5.25zm20.5 93.46c-0.86 0.98-2.24 3.14-3.06 4.79-0.81 1.65-1.78 4.8-2.15 7-0.47 2.85-0.22 4.65 0.87 6.25 0.84 1.24 2.54 2.26 3.78 2.28 1.24 0.01 3.21-1 4.38-2.25 1.16-1.26 2.63-3.29 3.25-4.53 0.61-1.24 1.11-3.94 1.11-6-0.01-2.06-0.59-4.87-1.28-6.25-0.69-1.37-2.17-2.63-3.29-2.79-1.12-0.17-2.74 0.51-3.61 1.5zm-76.41 8.3c-1.51 1.6-1.92 3.69-2.05 10.25-0.14 7.47-0.37 8.38-2.5 9.74-1.29 0.82-3.36 2.51-4.6 3.75-1.24 1.24-2.25 3.38-2.25 4.75 0 1.38 0.94 4.19 2.1 6.25 1.15 2.06 3.4 6.11 5 9 1.59 2.89 3.8 5.48 4.9 5.75 1.1 0.27 2.9 2.3 4 4.5 1.49 2.97 1.68 4.11 0.75 4.42-0.69 0.23-0.24 0.46 1 0.5 1.24 0.04 2.25-0.48 2.24-1.17 0-0.69-0.45-2.94-1-5-0.58-2.19-2.08-4.48-3.61-5.5-1.45-0.96-4.58-4.67-6.97-8.25-2.84-4.25-4.35-7.62-4.37-9.75-0.03-2.56 0.71-3.83 3.5-6 1.95-1.51 3.84-3.43 4.19-4.25 0.36-0.82 0.9-4.84 1.21-8.92 0.35-4.69 1.02-7.54 1.81-7.75 0.8-0.21 1.25 0.76 1.25 2.67 0 1.65 0.52 5.14 1.15 7.75 1.06 4.36 0.97 5-1.1 7.75-1.62 2.15-2.09 3.78-1.65 5.75 0.36 1.66 1.59 3.15 3.1 3.75 1.37 0.55 2.71 1.56 2.97 2.25 0.27 0.69 1.43 6.65 2.58 13.25 1.16 6.6 2.46 12.67 2.9 13.5 0.44 0.83 1.57 9.38 2.52 19 0.94 9.63 1.46 18.85 1.16 20.5-0.3 1.65-2.22 5.48-4.26 8.5-2.05 3.02-4.54 7.86-5.54 10.75-1.01 2.89-1.83 5.92-1.83 6.75 0 0.83-1.13 2.85-2.5 4.5-1.38 1.65-2.05 3.23-1.5 3.5 0.55 0.27 1.79-0.12 2.75-0.89 0.96-0.76 3.07-4.92 4.69-9.25 1.61-4.32 4.66-10.56 6.76-13.86 2.1-3.3 4.07-7.8 4.37-10 0.31-2.2-0.11-11.65-0.91-21-0.8-9.35-2.16-19.92-3.01-23.5-0.85-3.58-2.34-10.55-3.31-15.5-1.57-7.96-2.09-9.17-4.55-10.5-1.53-0.83-2.78-2.29-2.78-3.25-0.01-0.96 0.64-2.76 1.44-4 1.11-1.73 1.29-4.09 0.78-10.25-0.45-5.37-1.25-8.74-2.45-10.25-0.98-1.24-2.39-2.25-3.13-2.25-0.75 0-2.21 0.91-3.25 2.01zm-58.54 55.73c-1.3 0.9-2.69 2.12-3.09 2.7-0.41 0.58-0.75 2.75-0.75 4.81-0.02 2.74-0.56 4.02-2.02 4.75-1.5 0.75-2 2-2 5 0 2.2 0.45 4.23 1 4.5 0.55 0.27 1 2.08 1 4 0 3.04 0.3 3.47 2.25 3.25 1.38-0.15 2.36-1.02 2.53-2.25 0.15-1.1-0.62-3.8-1.71-6-1.98-3.99-1.98-4.01 0.01-6.5 1.21-1.52 1.98-3.97 1.95-6.25-0.02-2.47 0.48-3.92 1.47-4.25 0.82-0.27 1.72-0.5 2-0.5 0.27 0 0.75 1.24 1.06 2.75 0.3 1.51-0.02 5-0.71 7.75-1 3.98-1.01 6.12-0.02 10.5 0.67 3.02 2.34 6.96 3.7 8.75 1.36 1.79 2.73 4.71 3.05 6.5 0.42 2.31-0.57 6.74-3.39 15.25-2.18 6.6-4.87 14.92-5.96 18.5-1.1 3.58-2.27 9.09-2.61 12.25l-0.62 5.75c6.24 1.95 6.45 2.28 5.88 5.26-0.34 1.78-0.45 3.8-0.25 4.49 0.21 0.69 1.04 1.25 1.87 1.25 0.82 0 2.43 0.56 3.56 1.25 1.81 1.09 2.37 0.91 4.5-1.5 1.34-1.51 2.44-3.42 2.44-4.25 0-0.86 1.18-1.7 2.75-1.97 1.51-0.26 3.31-1.05 3.99-1.75 0.79-0.81 1.17-3.68 1.04-7.78-0.15-4.57 0.37-7.9 1.76-11.23 1.93-4.66 1.93-4.8 0.06-10-1.63-4.55-1.73-5.99-0.75-10.52 1.01-4.63 1.45-5.25 3.65-5.25 1.37 0 2.72-0.67 3-1.5 0.27-0.83 0.5-5.44 0.51-10.25 0-6.15-0.44-9.42-1.5-11-0.83-1.24-1.75-4.39-2.04-7-0.52-4.68-0.48-4.63 2.36 2.75 1.59 4.13 3.41 10.2 4.04 13.5 0.64 3.3 1.83 6.67 2.66 7.5 1.23 1.23 1.86 1.28 3.49 0.25 1.36-0.86 2.45-0.94 3.48-0.25q1.5 1 3.5 0c1.1-0.55 2.25-1.79 2.55-2.75 0.3-0.96 0.02-4.67-0.62-8.25-1.1-6.18-1.03-6.74 1.42-11.5 1.42-2.75 3.02-7.92 3.57-11.5 0.55-3.58 0.91-6.62 0.79-6.76-0.11-0.14-1-0.03-1.96 0.25-1.35 0.39-1.89 2.04-2.39 7.26-0.47 5.04-1.23 7.45-3 9.5q-2.36 2.75-2.35 6.5c0 2.06 0.45 5.44 1 7.5 0.54 2.06 0.76 4.65 0.49 5.75-0.48 1.92-0.59 1.93-2.6 0.25-2-1.67-2.17-1.66-3.82 0.25-1.68 1.94-1.77 1.79-2.92-5-0.65-3.85-2.08-8.8-3.18-11-1.1-2.2-1.99-4.79-1.99-5.75 0.01-0.96-0.55-2.89-1.24-4.27-0.69-1.39-1.93-2.75-2.75-3.03-0.83-0.27-1.84-0.15-2.27 0.28-0.42 0.42-1.2 2.68-1.75 5.02-0.76 3.28-0.64 5.05 0.52 7.75 0.82 1.92 1.95 3.73 2.5 4 0.56 0.28 1 4.5 1 9.5v9l-6.5 0.5c-1.59 13.67-1.45 15.58-0.12 18.25 0.89 1.79 1.63 3.81 1.64 4.5 0.02 0.69-0.93 3.5-2.11 6.25-1.56 3.65-2.04 6.48-1.77 10.5 0.35 5.37 0.3 5.51-2.39 5.75-2.15 0.2-3.13 1.13-4.5 4.24-0.96 2.19-2.09 3.99-2.5 4-0.41 0.01-0.76-0.55-0.77-1.24-0.01-0.69-0.79-2.93-1.75-4.98-1.04-2.24-2.63-3.94-3.98-4.25-1.72-0.4-2.25-1.23-2.25-3.52 0-1.65 0.7-5.59 1.56-8.75 0.86-3.16 1.91-6.65 2.34-7.75 0.43-1.1 2.52-7.4 4.65-14 2.13-6.6 3.89-13.38 3.91-15.07 0.02-1.73-1.16-4.9-2.71-7.25-1.51-2.3-3.09-5.58-3.5-7.3-0.41-1.72-1.09-3.29-1.5-3.5-0.41-0.21-0.75-1.73-0.75-3.38 0-1.65 0.5-4.01 1.1-5.25 0.66-1.34 0.86-4.57 0.5-8-0.44-4.25-1.09-6-2.49-6.7-1.36-0.69-2.56-0.49-4.25 0.69zm56.85 10.96c-0.3 0.44-0.24 2.32 0.12 4.19 0.37 1.86 1.34 3.74 2.17 4.17 0.82 0.44 2.29 1.05 3.25 1.37 1.4 0.46 1.65 1.37 1.25 4.57-0.37 2.99-0.12 4.13 1 4.5 1.12 0.37 1.49 2.06 1.47 6.75-0.03 5.11 0.35 6.62 2.09 8.25l2.13 2c4.62-5.48 5-6.81 4.69-10.65-0.21-2.56-0.61-4.92-0.88-5.25-0.28-0.34-1.18-0.74-2-0.9-0.83-0.16-2.51-0.84-3.75-1.5-1.86-0.99-2.15-1.77-1.66-4.45 0.39-2.12 0.13-3.65-0.75-4.39-0.74-0.63-2.24-1.31-3.34-1.51-1.4-0.26-2.15-1.39-2.5-3.78-0.28-1.88-1.01-3.58-1.62-3.79-0.62-0.21-1.37-0.02-1.67 0.42zm-78.07 15.05c-0.26 0.41-1.18 2.77-2.06 5.25-0.87 2.48-1.92 7.74-2.33 11.69l-0.75 7.19c4.26 1.64 5.95 3.02 6.5 4.12 0.55 1.1 1 3.35 1 5 0 2.83 0.2 2.99 3.66 2.75 3.42-0.23 3.73-0.02 4.59 3.25 0.51 1.92 0.65 5.3 0.31 7.5-0.35 2.2-0.88 6.02-1.19 8.5-0.31 2.48-0.95 4.95-1.43 5.5-0.56 0.66-1.38 0.57-2.4-0.25-1.23-1-1.85-1-3.08 0-0.85 0.69-1.53 2.38-1.5 3.75 0.03 1.38-1.13 4.3-2.57 6.5-2.19 3.34-2.44 4.37-1.51 6.25 0.92 1.86 0.68 3.04-1.38 6.75-1.93 3.47-3.07 4.5-5 4.5-1.89 0-3.11 1.04-4.98 4.25-1.36 2.34-2.49 5.04-2.5 6-0.01 0.96 0.54 1.6 1.23 1.42 0.69-0.18 2.45-2.09 3.92-4.25 1.47-2.16 3.67-4.15 4.89-4.42 1.21-0.27 2.69-1.4 3.29-2.5 0.59-1.1 1.82-3.12 2.73-4.5 0.92-1.37 1.83-3.4 2.02-4.5 0.19-1.1 0.02-2.56-0.37-3.25-0.4-0.69 0.14-3.16 1.2-5.5 1.06-2.34 2.15-4.92 2.4-5.75 0.29-0.93 1.36-1.36 2.82-1.13 1.29 0.21 2.78-0.24 3.3-1 0.53-0.75 1.3-3.17 1.71-5.37 0.41-2.2 1.21-6.48 1.78-9.5 0.68-3.68 0.69-6.66 0.02-9-0.55-1.92-1.78-4.3-2.73-5.28-0.95-0.98-2.74-1.77-3.98-1.75-1.74 0.02-2.25-0.53-2.25-2.47 0-1.37-1.13-3.62-2.5-5-1.38-1.37-2.95-2.5-3.5-2.5-0.55 0-0.83-1.46-0.62-3.25 0.21-1.79 0.92-5.95 1.58-9.25 0.66-3.3 1.58-6.45 2.03-7 0.52-0.62 2.01 0.33 3.92 2.5l3.07 3.5c3-3.87 3.67-5.34 3.44-5.75-0.23-0.41-1.21-0.51-2.17-0.22-1.01 0.3-2.6-0.35-3.75-1.54-1.1-1.13-2.99-2.04-4.2-2.02-1.21 0.02-2.41 0.37-2.66 0.78zm56.74 25.97c-0.83 1.34-0.75 2.78 0.32 5.78 0.78 2.2 1.17 5.24 0.86 6.75-0.32 1.55 0.09 4.05 0.94 5.75 0.82 1.65 1.39 3.49 1.25 4.09-0.14 0.6 0.51 1.62 1.45 2.25 0.93 0.64 1.92 0.93 2.19 0.66 0.27-0.27-0.02-2.52-0.64-5-0.61-2.48-1.15-8.33-1.18-13-0.06-7.72-0.25-8.53-2.07-8.78-1.11-0.16-2.51 0.51-3.12 1.5zm75.58 6.91c-1.21 1.47-2.12 3.91-2.06 5.5 0.05 1.58 1 4.33 2.1 6.12 1.09 1.79 1.99 3.59 2 4 0 0.41-1.35 0.75-3 0.75-2.27 0-3.24-0.61-4-2.5-0.69-1.73-1.77-2.5-3.5-2.5-2.34 0-2.43-0.18-1.35-2.75 0.63-1.51 0.87-3.87 0.54-5.25-0.34-1.37-1.53-3.06-2.65-3.75-1.69-1.04-2.49-0.95-4.7 0.5-2.32 1.53-2.61 2.28-2.25 5.94 0.35 3.57 0.08 4.34-1.84 5.25-1.24 0.58-2.7 1.96-3.25 3.06-0.82 1.63-0.46 2.5 1.94 4.75l2.94 2.75c-3.19 6.2-4.06 9.46-4 11.25 0.07 1.79-0.33 3.25-0.88 3.25-0.55 0-1-1.12-1-2.5 0-1.62-1.23-3.56-3.5-5.5-1.93-1.65-3.73-3-4-3-0.28 0-1.74 0.62-3.25 1.38-2.06 1.03-3.22 2.85-4.63 7.25-1.1 3.46-1.62 7-1.25 8.62 0.38 1.64 1.89 3.46 3.73 4.5 1.71 0.96 4.86 2.99 7 4.5 2.15 1.51 3.9 3.42 3.9 4.25 0 0.83-1.35 2.17-3 3-1.65 0.83-3.51 2.51-4.13 3.75-1.03 2.04-0.63 2.68 4.14 6.75 5.02 4.29 5.24 4.67 4.63 8.25-0.6 3.5-0.44 3.82 2.36 4.75 2.38 0.79 2.95 1.51 2.75 3.48-0.14 1.36 0.2 2.51 0.75 2.54 0.55 0.04 1.56-0.63 2.25-1.48 0.69-0.84 1.14-2.31 1-3.24-0.14-0.94-1.35-1.95-2.7-2.25-2.01-0.45-2.47-1.19-2.55-4.05-0.06-1.92-1.04-4.85-2.18-6.5-1.14-1.65-3.24-3.67-4.66-4.5l-2.57-1.5c4.32-5.42 5.87-7.56 6.24-8.25 0.37-0.69 0.21-2.26-0.35-3.5-0.56-1.24-3.54-3.83-6.62-5.75-3.09-1.92-6.12-4.09-6.73-4.82-0.85-0.99-0.64-2.66 0.87-6.72 1.33-3.57 2.67-5.56 4-5.88 1.1-0.26 2.58 0.06 3.29 0.72 0.72 0.66 1.28 1.99 1.25 2.95-0.02 0.96 1.15 2.99 2.6 4.5l2.64 2.75c3.81-4.65 4.68-6.67 4.4-7.5-0.28-0.83 0.07-2.4 0.78-3.5 0.71-1.1 1.6-3.35 1.98-5 0.56-2.37 0.16-3.68-1.87-6.25l-2.57-3.25c6.37-4.68 6.45-4.9 5.26-8.13-0.99-2.69-0.99-3.63 0-4.67 1.01-1.06 1.51-1 2.74 0.33 1.25 1.36 1.3 2.23 0.29 5.3-1.19 3.6-1.14 3.74 2.72 7.17 3.22 2.85 3.86 4.01 3.47 6.25-0.38 2.17 0.03 3.01 1.96 4 2.06 1.05 2.84 0.97 5-0.5 1.65-1.13 2.38-2.37 2.05-3.5-0.28-0.96 0.2-2.42 1.08-3.25 1.12-1.06 1.4-2.38 0.93-4.5-0.36-1.65-1.41-3.81-2.33-4.8-1.32-1.43-1.46-2.36-0.65-4.5 0.79-2.08 1.7-2.7 3.92-2.7 2.18 0 3.31 0.74 4.57 3 0.98 1.78 2.48 3 3.67 3 1.1 0 2.74 0.56 3.66 1.25 1.17 0.88 2.25 0.96 3.66 0.25 1.1-0.55 2.27-2.24 2.59-3.75 0.47-2.16 0.85-2.48 1.75-1.48 0.64 0.69 2.85 1.26 4.91 1.25 2.92-0.02 4.2-0.63 5.78-2.77 1.91-2.6 2.16-2.67 4.51-1.25 1.37 0.83 2.92 2.63 3.43 4 0.52 1.38 1.07 3.63 1.23 5 0.2 1.69 1.49 3.15 3.99 4.5q3.68 2 4.25 4.75c0.31 1.51 1.57 3.25 2.81 3.85 1.71 0.84 2.8 0.78 4.52-0.25 1.95-1.16 2.73-1.11 5.5 0.32 3.16 1.64 3.28 1.62 5.73-0.86l2.5-2.54c3.49 3.28 4.5 5.13 4.5 6.23 0 1.1 1.08 3.91 2.4 6.25 1.31 2.34 2.66 5.26 3 6.5 0.41 1.54-0.36 3.74-2.45 7-2.66 4.14-2.95 5.25-2.25 8.67 0.53 2.57 1.66 4.43 3.3 5.42 1.68 1.01 3.65 1.28 6 0.84 1.92-0.36 5.52-2.09 8-3.84 3.75-2.65 5.41-3.18 10-3.16 3.02 0.01 9.1 0.91 13.5 1.99 5.23 1.3 10.42 1.87 15 1.67 3.85-0.18 10.71-0.55 15.25-0.83l8.25-0.51c3.87 6.2 6.91 9.09 9.25 10.42 2.34 1.33 6.27 2.94 8.75 3.58 2.47 0.64 6.3 2.2 8.5 3.47 2.2 1.26 4.51 3.36 5.14 4.66 0.63 1.31 1.92 5.07 2.87 8.37 1.31 4.56 1.53 7.44 0.94 12-0.43 3.3-0.67 6.9-0.52 8 0.14 1.1 1.72 3.35 3.51 5 1.78 1.65 3.42 3.48 3.65 4.06 0.23 0.58 2.66 2.58 5.41 4.44 2.75 1.87 9.72 5.62 15.5 8.34 5.77 2.72 12.97 5.8 16 6.85 3.02 1.05 9.44 3.24 14.25 4.86 4.81 1.62 10.77 2.95 13.25 2.95 2.47 0 4.51 0.34 4.52 0.75 0.02 0.41-0.66 2.44-1.5 4.5-0.83 2.06-1.97 3.98-2.52 4.25-0.55 0.27-2.58 3.76-4.51 7.75-2.23 4.62-3.5 8.7-3.49 11.25 0.01 2.2 0.91 6.92 2 10.5 1.09 3.58 1.99 7.85 1.99 9.5 0.01 1.65-1.39 5.92-3.09 9.5-1.71 3.58-4.15 7.85-5.43 9.5-1.28 1.65-3.98 6.83-6.01 11.5-2.02 4.67-4.92 12.77-6.43 18-1.52 5.23-3.07 11.52-3.45 14-0.39 2.48-1.14 5.63-1.67 7-0.71 1.85-0.47 3.94 0.91 8 1.06 3.12 1.67 7.02 1.41 9-0.27 2.08 0.2 4.82 1.16 6.75 0.88 1.79 1.61 4.38 1.61 5.75 0 1.38-1.01 3.69-2.25 5.15-1.9 2.23-2.45 2.42-3.51 1.25-0.69-0.77-2.16-2.64-3.25-4.15-1.2-1.66-3.08-2.85-4.74-3-2.2-0.2-2.8-0.8-3-3-0.19-2.14-1.13-3.14-4.2-4.5-2.17-0.96-4.19-2.65-4.48-3.75-0.29-1.1-3.8-5.43-7.8-9.62-4-4.2-9.07-8.54-11.27-9.65-2.2-1.11-4.9-2.98-6-4.16-1.1-1.17-2.56-2.12-3.25-2.1-0.69 0.02-2.15-1.55-3.25-3.47-1.25-2.19-3.03-3.74-4.75-4.13-1.51-0.34-3.88-1.65-5.25-2.89-1.38-1.25-4.75-3.38-7.5-4.75-2.75-1.36-5.66-3.17-6.46-4.02-0.8-0.84-1.64-3.26-1.88-5.37-0.23-2.11-1.38-4.86-2.54-6.12-1.17-1.25-3.13-2.26-4.37-2.25-1.24 0.02-3.49 0.78-5 1.69-1.62 0.97-3.78 1.42-5.25 1.09-1.38-0.3-3.63 0.06-5 0.82-1.38 0.75-2.85 1.04-3.28 0.65-0.43-0.4-0.76-1.84-0.73-3.22 0.02-1.37-0.53-3.27-1.22-4.21-0.7-0.94-2.62-1.96-4.27-2.27-1.65-0.31-4.13-1.74-5.5-3.16-1.38-1.43-3.51-2.99-4.75-3.48-1.24-0.48-2.25-1.55-2.25-2.38 0-0.83-0.9-1.73-2-2-1.1-0.27-2.45-1.4-3-2.5-0.71-1.43-0.6-2.79 0.38-4.75 0.76-1.51 2.56-3.31 4-4 1.44-0.69 3.07-2.37 3.62-3.75 0.55-1.37 1.01-4.19 1.03-6.25 0.02-2.48-0.65-4.43-2-5.75-1.27-1.26-2.59-1.72-3.53-1.25-1.19 0.6-1.5 0.03-1.5-2.75 0-2.56-0.81-4.31-3-6.5-1.65-1.65-3.68-3-4.5-3-0.83 0-1.5-0.89-1.5-2 0-1.1-1.46-3.11-3.25-4.47-1.79-1.36-3.59-2.49-4-2.5-0.41-0.02-1.65-1.15-2.75-2.53-1.1-1.37-2.56-2.51-3.25-2.53-0.69-0.02-2.15 0.88-3.25 1.99-1.61 1.63-2.26 1.79-3.29 0.79-0.72-0.69-1.27-1.92-1.23-2.75 0.04-0.83-0.27-1.83-0.7-2.24-0.43-0.41-1.34-0.3-2.03 0.25-0.84 0.67-1.75 0.58-2.79-0.26-0.85-0.69-1.53-1.81-1.5-2.5 0.02-0.69-0.97-1.32-2.21-1.41-1.24-0.09-3.04-0.09-4 0-1.31 0.12-1.75-0.59-1.75-2.84q0-3-2-4c-1.1-0.55-3.01-0.74-4.25-0.42-1.29 0.33-2.78 0.01-3.48-0.75-0.67-0.73-1.61-2.68-2.07-4.33-0.56-2.02-1.55-3.08-3.02-3.25-1.2-0.14-2.18-0.92-2.18-1.75 0-0.83-0.79-1.71-1.75-1.96-0.96-0.25-3.12-2.39-4.79-4.75-1.67-2.36-3.92-6.09-5-8.29-1.08-2.2-2.97-5.46-4.21-7.25-2.17-3.14-2.2-3.43-0.74-8.5 0.83-2.89 1.51-5.59 1.5-6-0.01-0.41-1.23-2.21-2.71-4-1.49-1.79-2.76-3.92-2.82-4.75-0.07-0.83-0.76-3.69-1.55-6.37-0.79-2.69-1.99-5.27-2.68-5.75-0.69-0.49-2.26-0.71-3.5-0.51-1.24 0.21-3.04 0.66-4 1q-1.75 0.63-1.75-0.87c0-1.05-1.06-1.5-3.5-1.5-1.93 0-5.41 1.09-7.75 2.42-2.71 1.54-4.92 3.81-6.1 6.25-1.2 2.48-1.67 5.06-1.34 7.33 0.29 1.92 0.07 5.08-0.47 7-0.79 2.81-0.59 4.39 0.99 8 1.08 2.48 2.57 4.77 3.32 5.11 0.78 0.35 1.66 3.17 2.1 6.75 0.41 3.38 1.2 6.37 1.75 6.64 0.55 0.27 1.96 2.41 3.13 4.75 1.17 2.34 3.65 5.94 5.5 8 1.85 2.06 3.37 4.65 3.37 5.75 0 1.24 1.33 2.76 3.5 4 1.92 1.1 3.5 2.45 3.5 3 0 0.55 0.34 0.98 0.75 0.97 0.41-0.02 4.29 2.11 8.61 4.75 4.33 2.63 8.27 5.57 8.75 6.53 0.49 0.96 1.9 1.74 3.14 1.72 1.24-0.01 3.25 1 4.48 2.25 1.22 1.26 2.22 2.95 2.22 3.78-0.01 0.83 0.79 2.28 1.77 3.22 0.98 0.95 3.02 1.74 4.53 1.75 1.51 0.02 3.09 0.59 3.5 1.28 0.41 0.69 0.74 4.25 0.75 7.92 0 5.77 0.34 7.01 2.5 9.19 1.37 1.39 3.51 2.55 4.75 2.58 1.24 0.03 3.71 0.15 5.5 0.25 1.79 0.11 4.04-0.12 5-0.5 1.05-0.42 1.89-0.19 2.11 0.56 0.2 0.69 0.78 2.6 1.28 4.25 0.5 1.65 1.58 3.06 2.39 3.13 0.81 0.08 2.03 0.19 2.72 0.25 0.69 0.07 1.24 0.91 1.23 1.87-0.01 0.96 0.56 2.32 1.25 3.02 0.7 0.69 1.61 1.26 2.02 1.25 0.41-0.01 0.75-0.92 0.75-2.02 0-1.1-0.45-2.9-1-4-0.55-1.1-2.13-2.45-3.5-3-1.38-0.55-3.13-2.46-3.9-4.25-0.78-1.79-2.35-4.04-3.5-5-1.16-0.96-2.55-1.52-3.1-1.25-0.55 0.27-2.24-1.36-3.75-3.63-1.51-2.27-4.33-4.86-6.25-5.75-2.47-1.15-3.57-2.36-3.74-4.12-0.12-1.38-0.8-3.03-1.5-3.67-0.69-0.64-2.82-1.31-4.72-1.5-2.45-0.23-3.62-0.92-4-2.33-0.3-1.1-1.44-3.25-2.54-4.78-1.1-1.53-3.24-2.99-4.75-3.25-1.65-0.28-3.25-1.48-4-3-0.71-1.44-2.11-2.53-3.25-2.53-1.1 0-3.8-1.46-6-3.25-2.2-1.78-5.91-4.47-8.25-5.97-2.34-1.49-4.7-2.72-5.25-2.72-0.55 0-1.23-1.12-1.5-2.5-0.28-1.37-2.08-4.52-4-7-1.93-2.48-3.51-5.06-3.52-5.75-0.01-0.69-1.25-2.52-2.75-4.07-2.35-2.42-2.73-3.64-2.73-8.75 0-4.08-0.39-5.93-1.25-5.93-0.69 0-2.02-1.24-2.96-2.75-1.21-1.94-1.75-5.11-1.84-10.75q-0.13-8.01 1.38-11c0.83-1.65 2.67-4.15 4.09-5.56l2.58-2.56c7.39 4.06 7.58 4.07 10.75 2.32 2.57-1.42 3.4-1.52 3.97-0.5 0.4 0.72 1.24 3.78 1.88 6.8 0.63 3.02 2.21 6.74 3.52 8.25 1.31 1.51 2.38 3.88 2.38 5.25 0 1.38-0.79 4.06-1.75 5.96l-1.75 3.45c5.34 8.21 7.95 12.61 9.25 15.09 1.3 2.48 2.72 4.73 3.16 5 0.43 0.27 1.31 1.51 1.94 2.75 0.63 1.24 2.27 2.7 3.65 3.25 1.73 0.69 2.5 1.77 2.5 3.5 0 1.38 0.36 2.5 0.8 2.5 0.44 0 1.32-0.56 1.95-1.25 0.89-0.97 1.38-0.29 2.2 3 0.68 2.75 1.85 4.64 3.3 5.36 1.64 0.8 2.86 0.8 4.5 0 2.01-0.99 2.32-0.82 2.89 1.64 0.35 1.51 1.14 3.35 1.75 4.09 0.72 0.88 2.24 1.14 4.36 0.75 2.66-0.48 3.25-0.27 3.23 1.16-0.01 0.96 0.56 2.32 1.25 3.02 0.7 0.69 2.06 1.26 3.02 1.25 0.96-0.01 1.95 0.77 2.19 1.73 0.25 0.96 1.15 2.31 2 3 1.29 1.03 2.08 0.82 4.56-1.25 1.65-1.37 3.45-2.27 4-2 0.55 0.27 1 0.95 1 1.5 0 0.55-1.35 1.45-3 2-1.65 0.55-2.85 1.56-2.67 2.25 0.18 0.69 1.53 1.36 3 1.5 1.72 0.16 3.21-0.46 4.17-1.75 0.82-1.1 1.7-1.66 1.93-1.25 0.24 0.41 0.02 1.42-0.48 2.25-0.51 0.83-0.93 2.06-0.93 2.75-0.01 0.69 0.88 2.15 1.98 3.25 1.43 1.43 2.86 1.86 5 1.5 2.81-0.47 2.93-0.36 1.94 1.75-0.74 1.58-0.74 3.06 0 5 0.77 1.98 1.76 2.75 3.56 2.75 1.56 0 2.5 0.57 2.5 1.5 0 0.83 0.36 1.5 0.8 1.5 0.44 0 1.32-0.56 1.96-1.25 0.67-0.71 1.83-0.93 2.7-0.5 0.85 0.41 1.54 1.2 1.54 1.75 0 0.55-1.03 1-2.3 1-1.26 0-2.85 0.56-3.52 1.25-0.67 0.69-1.21 1.81-1.2 2.5 0.01 0.69 0.81 1.27 1.77 1.29 0.96 0.03 2.42-0.67 3.25-1.54 0.82-0.87 1.84-1.57 2.25-1.54 0.41 0.02 0.75 1.17 0.75 2.54 0 1.72-1.17 3.39-3.75 5.33-2.06 1.56-4.54 3.14-5.5 3.5-0.97 0.37-1.73 1.67-1.71 2.92 0.01 1.24 0.58 3.17 1.25 4.29 0.66 1.13 2.33 3.53 3.71 5.35 1.37 1.82 4.19 4.16 6.25 5.21 2.06 1.04 4.2 2.8 4.75 3.9 0.64 1.28 1.99 1.99 3.75 1.98 1.51-0.01 3.32 0.56 4.02 1.25 0.69 0.7 1.24 2.62 1.2 4.27-0.03 1.65 0.66 3.67 1.55 4.5 1.43 1.33 1.96 1.33 4.79-0.07 2.48-1.21 3.8-1.33 5.91-0.5 2.29 0.9 3.21 0.71 5.75-1.18 1.67-1.24 3.59-2.26 4.28-2.27 0.69-0.01 1.82 0.56 2.52 1.25 0.69 0.7 1.26 2.62 1.26 4.27 0 1.65 0.33 4.05 0.73 5.34 0.41 1.28 2.65 3.42 4.99 4.75 2.34 1.32 4.92 2.41 5.75 2.41 0.82 0 2.74 1.26 4.25 2.81 1.51 1.54 4.89 3.79 7.5 5 3.35 1.54 4.75 2.78 4.75 4.19 0 1.1 1.07 2.56 2.39 3.25 1.31 0.69 5.02 3.09 8.25 5.35 3.22 2.25 6.37 4.28 7 4.5 0.63 0.22 3.1 2.82 5.5 5.77 2.4 2.95 5.15 6.89 6.11 8.75 1.22 2.36 2.43 3.37 4 3.34 1.24-0.03 2.76 0.53 3.38 1.25 0.63 0.71 1.42 2.75 1.75 4.54 0.58 3.02 0.9 3.25 4.62 3.25 3.33 0 4 0.33 4 2 0 1.1 1.01 2.68 2.25 3.51 1.24 0.83 3.15 1.51 4.25 1.52 1.1 0.01 3.03-1 4.29-2.25 1.4-1.4 2.53-4.03 2.9-6.78 0.42-3.19 0.11-5.52-1.08-8-1.06-2.21-1.45-4.61-1.07-6.5 0.37-1.83-0.07-4.76-1.12-7.5-1.65-4.27-1.65-4.9 0.01-12.5 0.96-4.4 3.28-12.84 5.16-18.75 1.87-5.91 4.78-13.79 6.46-17.5 1.68-3.71 3.88-7.65 4.89-8.75 1.01-1.1 3.08-4.48 4.59-7.5 1.7-3.4 2.94-7.79 3.25-11.5 0.38-4.56-0.03-7.56-1.71-12.5-1.56-4.59-2-7.53-1.51-10 0.38-1.92 2-5.98 3.61-9 1.61-3.02 4.02-7.3 5.36-9.5 1.34-2.2 2.46-5.35 2.5-7 0.03-1.65-0.52-3.55-1.24-4.22-0.71-0.68-3.52-1.16-6.29-1.08-3.66 0.1-8.6-1.13-18.5-4.6-7.43-2.61-18.45-7.11-24.5-10-6.05-2.9-12.8-6.5-15-8.01-2.2-1.51-5.35-4.38-7-6.39-2.89-3.51-3-4.01-3-13.67 0-5.52-0.56-11.94-1.25-14.28-0.69-2.34-2.71-5.88-4.5-7.88-1.79-1.99-4.94-4.47-7-5.5-2.06-1.03-4.54-1.86-5.5-1.86-0.96 0.01-4.2-1.23-7.18-2.75-3.55-1.8-6.24-4.06-7.75-6.51-1.62-2.61-3.46-4.09-6.07-4.88-2.83-0.85-6.08-0.81-13.25 0.14-5.41 0.71-12.3 0.97-16 0.59-3.58-0.36-8.98-1.32-12-2.12-3.03-0.8-7.41-1.46-9.75-1.47-2.34 0-5.71 0.6-7.5 1.34-1.79 0.75-5.05 2.56-7.25 4.03-2.2 1.48-4.79 2.67-5.75 2.65-0.96-0.02-2.2-0.93-2.75-2.03-0.55-1.1-1-2.9-1-4 0-1.1 1.13-3.69 2.5-5.75 1.38-2.06 2.5-4.87 2.49-6.25-0.01-1.37-1.37-5.2-3.03-8.5-1.65-3.3-2.98-6.67-2.95-7.5 0.03-0.83-1.08-2.74-2.48-4.25-1.39-1.51-3.32-2.77-4.28-2.79-0.96-0.03-2.88 0.83-4.25 1.89-1.96 1.52-3.04 1.73-5 0.98-1.38-0.53-3.96-0.71-5.75-0.4-2.92 0.51-3.38 0.26-4.5-2.53-0.69-1.7-2.62-3.84-4.3-4.75-2.28-1.23-3.25-2.66-3.87-5.65-0.48-2.32-2.03-5.15-3.7-6.75-1.83-1.75-3.97-2.75-5.88-2.75-2.3 0-3.29 0.64-4.25 2.73-0.69 1.51-2.04 2.86-3 3-0.96 0.15-2.99-0.87-4.5-2.27-1.51-1.39-3.76-2.52-5-2.5-1.24 0.02-3.6 1.39-5.25 3.04l-3 3c-2.12-4.26-3.8-5.83-5.12-6.24-1.31-0.4-3.14-0.74-4.06-0.75-0.93 0-2.67 1.18-3.86 2.62zm-61.93 5.37q-1.04 2-0.03 4c0.55 1.1 1.87 2 2.93 2 1.06 0 2.63-0.67 3.5-1.5 0.86-0.83 1.57-1.95 1.57-2.5 0-0.55-0.68-1.67-1.5-2.5-0.83-0.83-2.39-1.5-3.47-1.5-1.09 0-2.44 0.9-3 2zm921.42 7.6c-2.72 1.43-8.55 5.04-12.95 8.01-4.4 2.97-9.8 6.74-12 8.37-2.2 1.64-6.48 3.92-9.5 5.07-3.84 1.47-7.69 4.2-12.75 9.03-5.67 5.41-7.9 6.92-10.25 6.92-1.65 0-5.75 1.46-9.1 3.25-5.82 3.1-6.31 3.19-10.5 2-2.42-0.69-6.88-1.25-9.9-1.25-3.15 0-8.6 1.03-12.75 2.41-3.99 1.33-9.73 3.09-12.75 3.9-3.03 0.81-6.85 1.5-8.5 1.53-1.65 0.02-5.03 0.78-7.5 1.69-2.48 0.91-7.65 2.02-11.5 2.46-3.85 0.43-8.8 1.68-11 2.76-2.2 1.08-5.7 3.95-7.79 6.36-2.4 2.78-4.59 6.92-6 11.31-1.91 6-2.88 7.46-7.21 10.89-2.75 2.18-7.03 4.83-9.5 5.89-3.6 1.54-5.7 1.78-10.5 1.23-4.56-0.53-7.2-0.27-11 1.07-2.75 0.97-6.24 3.06-7.75 4.63-1.51 1.58-2.75 3.77-2.75 4.87q-0.01 2-3.72 3.75c-2.93 1.38-3.96 2.6-4.84 5.75-0.85 3.07-1.67 4.08-3.53 4.34-1.32 0.19-3.25 1.09-4.27 2-1.03 0.91-2.83 1.75-4 1.86-1.18 0.11-4.62 0.63-7.64 1.16-3.03 0.53-7.75 1.96-10.5 3.17-3.8 1.69-6.08 2.08-9.5 1.63-3.23-0.43-5.06-0.17-6.5 0.93-1.1 0.84-2.04 2.52-2.09 3.72-0.05 1.2-0.39 2.75-0.75 3.44-0.44 0.84-2.14 1.09-5.16 0.75-3.04-0.34-4.69-0.09-5.1 0.75-0.33 0.69-0.1 2.83 0.51 4.75 0.85 2.7 0.81 3.67-0.16 4.26-0.69 0.42-2.38 1.04-3.75 1.39-1.38 0.34-4.41 2.14-6.75 3.99-2.34 1.85-5.9 3.7-7.91 4.11-2.09 0.43-4.35 1.74-5.25 3.06-1.32 1.92-1.38 2.72-0.34 4.75 0.82 1.6 2.11 2.44 3.75 2.44 1.37 0 2.5-0.45 2.5-1 0-0.55-0.9-1-2-1-1.11 0-2-0.67-2-1.5 0-0.83 0.67-1.5 1.5-1.5 0.82 0 1.49-0.34 1.48-0.75-0.01-0.41 2.35-1.75 5.25-2.97 2.9-1.22 6.39-3.33 7.77-4.69 1.42-1.41 3.15-2.23 4-1.91 0.82 0.31 2.51-0.05 3.75-0.81 1.87-1.14 2.21-2.12 2-5.87l-0.25-4.5c9.4-0.49 9.5-0.57 9.46-3.75-0.03-1.79 0.53-3.79 1.25-4.46 0.93-0.87 2.33-0.94 5.04-0.25 2.9 0.74 4.71 0.58 8-0.72 2.34-0.92 5.26-2.27 6.5-3 1.24-0.73 2.7-1.09 3.25-0.82 0.55 0.27 3.36 0 6.25-0.61 2.89-0.61 6.71-1.96 8.5-3 1.79-1.04 3.59-1.68 4-1.42 0.41 0.26 1.52-0.08 2.46-0.75 0.95-0.67 2.3-3.02 3-5.22 0.95-2.93 2.16-4.4 4.57-5.5 2.11-0.97 3.61-2.57 4.21-4.5 0.51-1.65 1.74-3.73 2.72-4.61 0.99-0.89 3.81-2.4 6.29-3.35 4-1.55 5.08-1.59 9.66-0.39 5.11 1.34 5.22 1.32 12.5-2.33 4.04-2.03 9.25-5.29 11.59-7.25 3.51-2.95 4.59-4.74 6.21-10.32 1.2-4.15 3.25-8.29 5.32-10.75 1.86-2.2 5.03-4.79 7.05-5.75 2.02-0.96 5.69-1.75 8.17-1.75 2.52 0 8.13-1.33 12.75-3.02 4.95-1.82 9.25-2.81 10.75-2.48 1.37 0.29 5.09-0.37 8.25-1.48 3.16-1.11 6.31-2.01 7-2 0.69 0.02 3.5-0.94 6.25-2.12 4.12-1.78 6.06-2.03 11-1.47 3.3 0.37 8.25 0.91 11 1.19 4.35 0.44 5.61 0.11 9.75-2.56 2.61-1.68 5.87-3.06 7.25-3.06 1.37 0 3.74-0.64 5.25-1.42 1.51-0.79 5.39-4.16 8.61-7.5 3.22-3.35 6.48-6.08 7.25-6.08 0.76 0 3.3-0.95 5.64-2.12 2.34-1.17 7.17-4.2 10.75-6.74 3.57-2.54 10.32-7.02 15-9.94 4.67-2.93 9.51-5.52 10.75-5.76 1.69-0.33 2.5 0.19 3.25 2.06 0.55 1.38 1.27 5.99 1.61 10.25 0.53 6.83 0.29 8.58-2.05 14.75-1.46 3.85-5.6 12.85-9.2 20-3.59 7.15-8.11 17.05-10.04 22-1.93 4.95-4.35 12.83-5.38 17.5-1.04 4.67-2.77 11.65-3.85 15.5-1.09 3.85-2.01 8.58-2.04 10.5-0.04 1.92 0.57 5.52 1.35 8 0.78 2.48 2.65 9.9 4.15 16.5 1.49 6.6 3.56 13.69 4.58 15.75 1.03 2.06 2.32 3.98 2.87 4.25 0.55 0.27 1 0.95 1 1.5 0 0.55-2.36 0.99-5.25 0.98-3.88-0.01-5.84 0.51-7.5 2-1.24 1.11-2.5 3.48-2.81 5.27l-0.57 3.25c-3.39-3.45-4.6-4.49-4.87-4.52-0.28-0.03-1.09 1.2-1.81 2.73-0.96 2.05-1.84 2.66-3.31 2.29-1.48-0.37-2.11 0.08-2.44 1.75-0.25 1.3-1.18 2.26-2.19 2.27-0.96 0.01-6.14 2.26-11.5 5-5.36 2.74-10.99 4.99-12.5 4.99-1.51 0.01-5.9-1.52-9.75-3.41-3.85-1.88-8.67-4.92-10.72-6.76-2.05-1.84-4.75-4.12-6-5.07-1.25-0.96-4.08-3.13-6.28-4.83-2.2-1.7-5-4.29-6.21-5.76-1.22-1.48-2.23-3.47-2.25-4.43-0.02-0.96-0.83-2.46-1.79-3.32-0.96-0.87-2.31-1.32-3-1-0.69 0.31-2.6-1.01-4.25-2.93-1.65-1.92-3.79-3.9-4.75-4.4-0.96-0.49-4.79-1.17-8.5-1.5-6.7-0.6-6.75-0.62-6.75-3.6 0-1.65-0.68-3.67-1.5-4.5-0.83-0.83-2.4-1.5-3.5-1.5-1.1 0-3.14 1.24-4.53 2.75-1.4 1.51-2.53 2.98-2.53 3.25 0 0.27 0.35 0.84 0.78 1.26 0.43 0.42 1.78-0.26 3.01-1.5 1.45-1.46 2.77-1.99 3.75-1.51 0.86 0.42 1.52 2.06 1.52 3.75 0 1.65 0.56 3.3 1.25 3.68 0.69 0.37 2.82 0.76 4.75 0.86 1.92 0.1 4.96 0.24 6.75 0.32 2.47 0.11 4.27 1.23 7.5 4.67 2.65 2.83 5.1 4.52 6.5 4.5 1.74-0.02 2.25 0.53 2.25 2.47 0 1.52 1.31 3.78 3.33 5.75 1.84 1.79 5.49 5.05 8.12 7.25 2.63 2.2 5.3 4.29 5.92 4.64 0.62 0.35 2.7 2.08 4.63 3.84 1.92 1.76 6.65 4.74 10.5 6.63 4.71 2.32 8.39 3.43 11.25 3.42 2.34-0.02 6.16-0.98 8.5-2.14 2.34-1.17 5.6-3.12 7.25-4.35 1.65-1.23 4.69-2.53 6.75-2.89 2.06-0.36 3.97-1.32 4.25-2.15 0.27-0.83 1.17-1.27 2-1 0.96 0.32 1.49-0.13 1.48-1.25-0.02-1.39 0.61-1.13 3.07 1.25 3.04 2.95 3.12 2.96 4.54 1 0.79-1.1 1.44-2.34 1.43-2.75-0.01-0.41 0.65-0.75 1.48-0.75 0.98 0 1.49-0.95 1.46-2.75-0.03-1.51 0.86-3.87 1.96-5.25 1.11-1.37 2.03-2.16 2.05-1.75 0.02 0.41 0.93 0.3 2.03-0.25 1.18-0.59 2.51-0.64 3.25-0.12 0.69 0.49 2.71 1.17 4.5 1.5 1.91 0.37 3.25 0.21 3.25-0.38 0-0.55-0.79-0.71-1.75-0.35-1.45 0.53-1.53 0.4-0.48-0.75 0.69-0.77 1.26-2.3 1.26-3.4 0-1.1-1.3-3.8-2.88-6-1.59-2.2-3.18-5.8-3.55-8-0.37-2.2-1.38-7.15-2.25-11-0.86-3.85-2.21-9.25-2.98-12-0.78-2.75-1.4-7.36-1.39-10.25 0.01-2.89 1.15-8.74 2.54-13 1.38-4.26 2.51-8.99 2.5-10.5-0.01-1.51 1.37-6.69 3.07-11.5 1.7-4.81 6.93-16.85 11.64-26.75 4.7-9.9 9.16-19.46 9.91-21.25 0.75-1.79 1.76-6.51 2.25-10.5 0.48-4 0.5-8.6 0.04-10.25-0.47-1.65-1.09-4.24-1.39-5.75-0.3-1.51-1.22-3.42-2.04-4.25-0.83-0.83-2.53-1.5-3.8-1.5-1.26 0-4.52 1.17-7.25 2.6zm-830.06-0.83c-0.61 0.4-1.85 2.19-2.75 3.98-0.9 1.79-1.64 4.6-1.64 6.25 0 1.73 1.06 4.27 2.5 6 1.37 1.65 3.17 3 4 3 1.14 0 1.44 1.02 1.25 4.21-0.22 3.72 0.07 4.36 2.5 5.5 2.65 1.24 2.73 1.52 2.25 7.29-0.47 5.69-0.33 6.19 2.75 9.56 2.46 2.7 3.68 3.37 5.04 2.75 0.98-0.44 1.99-1.37 2.25-2.06 0.25-0.69 0-2.49-0.57-4-0.57-1.51-0.8-4.21-0.5-6 0.4-2.46 0.07-3.56-1.34-4.5-1.59-1.06-1.7-1.67-0.75-4.09 1.02-2.58 0.85-3.05-1.74-5-2.23-1.69-2.73-2.7-2.28-4.66 0.37-1.59-0.14-3.69-1.39-5.75-1.38-2.27-2.72-3.25-4.47-3.25-2.11 0-2.5-0.47-2.5-3 0-1.65 0.45-3 1-3 0.55 0 1-0.9 1-2 0-1.24-0.66-1.99-1.75-1.98-0.96 0-2.25 0.34-2.86 0.75zm-93.6 4.52c-2.57 2.22-3.73 4.06-3.75 5.96-0.03 2.1 0.44 2.75 1.96 2.75 1.1 0 2.91 1.01 4.02 2.25 1.11 1.24 2.01 3.04 2 4-0.01 0.96 0.77 1.98 1.73 2.25 0.96 0.28 2.33-0.06 3.04-0.75 0.72-0.69 1.28-1.81 1.25-2.5-0.02-0.69-0.72-1.02-1.54-0.75-0.94 0.31-1.87-0.43-2.5-2q-1-2.5 0-4.5c0.55-1.1 1-3.8 1-6 0-3.16-0.37-3.99-1.75-3.96-0.96 0.02-3.42 1.49-5.46 3.25zm-7.44 10.46c-0.34 0.98 0.39 3.52 1.65 5.75 1.72 3.06 2.09 4.83 1.57 7.5-0.39 2.02-0.2 4.56 0.45 6 0.8 1.77 0.86 4.7 0.2 10-0.51 4.13-1.74 9.3-2.74 11.5-1.29 2.86-1.61 5.14-1.14 8 0.53 3.25 0.27 4.38-1.38 6-1.11 1.1-2 2.9-1.98 4 0.03 1.1 0.73 4.02 1.57 6.5 1.47 4.37 1.44 4.61-1.02 8.25-1.39 2.06-2.52 4.54-2.5 5.5 0.02 0.96-0.65 3.1-1.49 4.75-0.84 1.65-1.54 5.02-1.55 7.5-0.01 2.48 0.55 5.06 1.24 5.74 1.03 0.99 1 1.77-0.1 4-1.29 2.59-1.42 2.64-2.18 0.76-0.45-1.1-0.82-3.12-0.84-4.5-0.01-1.37-0.6-3.07-1.32-3.77-0.71-0.71-2.62-1.16-4.25-1l-2.95 0.27c-0.09 23.54 0.09 24.79 1.91 26.12 1.98 1.44 1.97 1.52-1 7.12-1.65 3.12-5.21 9.29-7.9 13.72-2.7 4.42-6.92 10.29-9.4 13.04-2.47 2.75-5.05 6.35-5.73 8-0.69 1.65-2.98 4.21-5.11 5.7-2.12 1.48-4.87 3.84-6.11 5.25-1.24 1.4-2.59 2.32-3 2.05-0.41-0.28 0.25-1.52 1.48-2.75 1.22-1.24 2.24-2.81 2.25-3.5 0.01-0.69 1.26-2.11 2.77-3.16 1.51-1.05 4.44-5.21 6.5-9.25 2.19-4.29 3.76-8.79 3.77-10.84 0.01-1.92-0.56-4.07-1.25-4.77-0.7-0.69-2.06-1.26-3.02-1.25-0.96 0.01-2.67 1.26-3.8 2.77-1.12 1.51-2.74 4.77-3.59 7.25-0.85 2.48-2.52 6.69-3.7 9.37-1.19 2.68-3.4 5.72-4.91 6.75-1.51 1.04-3.31 1.9-4 1.92-0.69 0.02-4.29 2.95-8 6.5-3.71 3.55-7.2 6.46-7.75 6.46-0.55 0-1.4 1.01-1.88 2.25-0.51 1.3-0.51 2.99 0 4 0.48 0.96 1.67 1.74 2.63 1.72 0.96-0.02 3.55-1.52 5.75-3.33 2.2-1.82 6.52-6.64 9.61-10.72 3.08-4.08 6.42-8.09 7.41-8.92 0.99-0.83 3.3-4.65 5.14-8.5 1.85-3.85 3.35-7.56 3.35-8.25-0.01-0.69 0.55-2.39 1.24-3.78 0.69-1.39 1.81-2.51 2.5-2.5 0.69 0.02 1.47 0.7 1.75 1.53 0.27 0.83-0.33 3.41-1.35 5.75-1.01 2.34-4.47 8.08-7.67 12.75-3.21 4.67-6.67 9.63-7.69 11-1.02 1.38-1.84 3.29-1.82 4.25 0.01 0.98 0.8 1.75 1.78 1.76 0.96 0 4-1.78 6.75-3.96 2.75-2.18 6.24-4.88 7.75-6.01 1.51-1.12 3.45-3.73 4.31-5.79 0.86-2.06 3.9-6.04 6.75-8.83 2.86-2.8 7.18-8.65 9.6-13 2.43-4.36 5.9-10.62 7.72-13.92 1.82-3.3 3.32-7.01 3.34-8.25 0.02-1.74-0.47-2.19-2.18-2-2.13 0.24-2.19-0.02-1.94-7.75 0.15-4.4 0.35-9.24 0.46-10.74 0.1-1.51 0.53-2.75 0.94-2.75 0.41-0.01 0.78 0.55 0.82 1.24 0.05 0.69 0.29 2.38 0.55 3.75 0.26 1.38 1.24 3.3 2.18 4.28 0.93 0.98 2.26 1.77 2.95 1.75 0.69-0.02 1.47-0.93 1.75-2.03 0.27-1.1 1.64-2.56 3.03-3.25 1.38-0.69 3.18-2.94 4-5 0.81-2.06 1.58-6.61 1.72-10.1 0.15-3.91-0.23-6.99-1-8-0.87-1.15-0.98-2.64-0.37-4.9 0.49-1.79 0.57-5.05 0.2-7.25-0.38-2.2-1-4.56-1.39-5.25-0.38-0.69 0.25-2.49 1.41-4 1.65-2.17 1.99-3.69 1.58-7.25-0.38-3.3 0.05-5.7 1.6-9 1.7-3.64 2.09-6.32 2.03-14-0.04-5.23-0.08-11.27-0.09-13.44-0.01-2.17-0.94-6.33-2.05-9.25-1.12-2.92-2.53-5.31-3.13-5.31-0.6 0-1.36 0.79-1.69 1.75zm67.05 2.34c-1.71 1.88-1.74 2.21-0.33 3.25 0.86 0.64 1.54 2.51 1.5 4.16-0.06 2.4 0.38 3.05 2.18 3.25 1.24 0.14 3.15-0.2 4.25-0.75 1.1-0.55 2-1.67 2-2.5 0-0.83-0.9-1.73-2-2-1.73-0.43-1.83-0.77-0.75-2.46 0.89-1.4 1.46-1.62 1.98-0.75 0.53 0.86 0.73 0.78 0.72-0.29-0.02-0.83-0.8-2.05-1.74-2.72-0.94-0.67-2.66-1.23-3.81-1.25-1.16-0.02-2.96 0.91-4 2.06zm0.6 13.11c-0.77 0.66-1.31 2.01-1.2 3 0.11 0.99 0.65 2.7 1.2 3.8q1 2 4 2c1.65 0 3.22-0.45 3.5-1 0.27-0.55-0.18-1-1-1-1.33 0-1.33-0.28 0-2.5 0.82-1.37 1.05-2.5 0.5-2.5-0.55 0-1.39 0.79-1.87 1.75-0.49 1-1.35 1.43-2 1-0.62-0.41-1.13-1.2-1.13-1.75 0-0.55 0.67-1 1.5-1 0.82 0 1.61-0.4 1.73-0.89 0.13-0.49-0.54-1.17-1.5-1.5-0.95-0.34-1.87-0.61-2.03-0.61-0.17 0-0.93 0.54-1.7 1.2zm9.05 1.98c-0.06 0.73 0.24 1.7 0.67 2.15 0.43 0.46 0.78 1.31 0.78 1.89 0 0.59 0.81 1.56 1.81 2.17 1.45 0.89 2.09 0.72 3.25-0.89 1.22-1.7 1.23-2.3 0.07-4-0.74-1.1-2.51-2.14-3.92-2.32-1.58-0.19-2.6 0.19-2.66 1zm-102.55 5.39c-0.9 0.87-1.61 2.44-1.57 3.5 0.04 1.06 0.41 2.67 0.82 3.57 0.41 0.9 1.54 2.02 2.5 2.5 1.2 0.59 2.39 0.31 3.78-0.89 1.29-1.11 2.02-2.94 2-5-0.02-2.23-0.66-3.56-2.03-4.25-1.1-0.55-2.42-1-2.93-1-0.51 0-1.67 0.71-2.57 1.57zm-11.53 2.18q-2.28 1.75-1.63 3.5c0.37 0.96 1.36 2.09 2.21 2.5 0.99 0.48 2.3 0.02 3.6-1.25 1.67-1.64 1.84-2.4 0.94-4.25-0.6-1.24-1.48-2.25-1.97-2.25-0.48 0-1.9 0.79-3.15 1.75zm-20.34 2c-0.26 0.41 0.38 1.88 1.43 3.25 1.04 1.38 1.91 1.94 1.92 1.25 0.01-0.69 0.92-1.25 2.02-1.25 1.37 0 2.49 1.18 3.55 3.75 0.86 2.06 1.65 4.64 1.75 5.73 0.15 1.52-0.41 1.99-2.47 2-1.46 0.01-3.04 0.4-3.5 0.86-0.45 0.46-0.83 3.15-0.83 5.97v5.13c-6.85-0.52-8.43-0.11-9.5 1.14-0.91 1.06-1.63 4.34-1.82 8.33-0.18 3.63-0.97 7.83-1.75 9.34-0.79 1.51-1.77 2.76-2.18 2.77-0.41 0.01-1.34-0.56-2.07-1.25-1.07-1.03-1.59-0.89-2.76 0.73-0.8 1.1-1.43 2.67-1.41 3.5 0.02 0.83-1.1 2.51-2.48 3.75-2.34 2.08-2.59 2.12-3.4 0.5-0.49-1-1.35-1.43-2-1-0.79 0.52-0.83 1.36-0.13 2.75 0.55 1.1 1 2.23 1 2.5 0 0.27-0.79 0.5-1.75 0.49-0.96 0-2.76 0.67-4 1.5-1.24 0.83-2.24 2.3-2.23 3.26 0.01 0.96-1 4.13-2.25 7.04-1.25 2.9-2.61 5.27-3.02 5.25-0.41-0.02-0.5-1.73-0.2-3.79 0.31-2.06 0.75-5.1 1-6.75 0.24-1.65 2.24-5.36 4.44-8.25 2.21-2.89 4.01-6.15 4.01-7.25 0-1.1 0.79-3.58 1.75-5.52 0.96-1.93 1.42-3.84 1.02-4.25-0.4-0.4-1.43-0.06-2.3 0.77-0.86 0.83-2.21 3.52-2.99 6-0.77 2.48-2.62 6.3-4.1 8.5-1.47 2.2-3.5 5.8-4.51 8-1 2.2-1.84 6.02-1.87 8.5-0.02 2.48 0.54 5.33 1.23 6.34 0.71 1.03 2.14 1.7 3.23 1.5 1.08-0.19 2.48-1.46 3.12-2.84 0.64-1.37 1.88-4.08 2.75-6 0.87-1.92 1.71-4.59 1.87-5.92 0.21-1.68 1.22-2.72 3.3-3.4 1.65-0.53 4.69-2.26 6.75-3.83 2.43-1.84 3.93-3.91 4.25-5.85 0.42-2.52 1-3.04 3.65-3.25 1.99-0.16 3.85-1.17 5.04-2.75 1.24-1.64 2-4.55 2.2-8.5 0.17-3.3 0.6-6.79 0.96-7.75 0.46-1.25 1.74-1.75 4.45-1.75 2.09 0 4.35-0.56 5.02-1.25 0.67-0.69 1.21-3.16 1.2-5.5-0.02-3.4 0.33-4.24 1.73-4.22 0.96 0.02 2.53-0.77 3.47-1.75 0.95-0.98 1.74-2.79 1.75-4.03 0.02-1.24-0.98-4.1-2.22-6.36-1.24-2.26-3.49-4.73-5-5.5-1.51-0.76-3.63-1.39-4.7-1.39-1.07 0-2.16 0.34-2.42 0.75zm133.14 1.06c-0.86 0.18-1.83 1.08-2.15 2-0.32 0.93-0.23 3.04 0.22 4.69 0.44 1.65 1.56 3.11 2.48 3.25 0.92 0.14 2.38-0.31 3.22-1 0.85-0.69 1.53-2.04 1.5-3-0.02-1.07-0.82-1.75-2.04-1.75-1.11 0-2-0.67-2-1.5 0-1.1 0.87-1.41 3.25-1.15 1.79 0.19 3.81 0.64 4.5 1 0.77 0.4 1.06 1.81 0.75 3.65-0.28 1.67-0.06 3 0.5 3 0.55 0 1.56-1.12 2.25-2.48 1.08-2.14 0.98-2.74-0.75-4.48-1.2-1.2-3.63-2.1-6.08-2.27-2.25-0.15-4.79-0.13-5.65 0.04zm-163.77 7.38c-0.77 0.66-1.31 2.24-1.2 3.51 0.11 1.27 0.87 2.97 1.7 3.8 0.82 0.83 2.08 1.5 2.8 1.5 0.71 0 1.85-0.56 2.52-1.25 0.67-0.69 1.21-1.81 1.2-2.5-0.01-0.7-1.01-1.14-2.27-1-1.36 0.15-2.15-0.24-2-1 0.14-0.69 0.25-1.76 0.25-2.37 0-0.62-0.36-1.3-0.8-1.52-0.44-0.21-1.43 0.16-2.2 0.83zm50.5 8.38c-0.9 0.87-1.63 2.1-1.6 2.75 0.02 0.65 0.84 1.97 1.82 2.94 1.7 1.68 1.86 1.68 3.5 0 0.95-0.97 1.75-2.43 1.77-3.26 0.02-0.83-0.53-2.07-1.22-2.77-0.7-0.69-1.58-1.26-1.95-1.25-0.37 0.01-1.42 0.73-2.32 1.59zm-37.32 1.34c-0.82 1.45-0.95 4.38-0.43 9.56 0.65 6.48 0.52 7.65-0.98 8.75-1.21 0.89-1.46 1.73-0.81 2.78 0.79 1.29 1.2 1.23 3.03-0.5 1.92-1.81 2.09-2.9 1.82-11.66-0.17-5.32-0.57-9.97-0.88-10.34-0.31-0.37-1.1 0.27-1.75 1.41zm90.32 4.76c-0.46 0.36-0.76 1.71-0.67 3 0.09 1.28 0.68 2.67 1.3 3.08 0.69 0.46 0.86 1.92 0.46 3.75-0.37 1.65-1.3 3.67-2.06 4.5-0.97 1.05-1.26 3.3-0.98 7.5 0.23 3.3 0.68 7.58 1.01 9.5 0.49 2.87 0.15 3.95-1.92 6-1.38 1.38-2.93 3.63-3.45 5-0.55 1.46-0.57 3.43-0.06 4.75 0.68 1.75 1.37 2.1 3.12 1.58 1.24-0.37 3.15-0.63 4.25-0.58 1.1 0.04 3.01-0.55 4.25-1.33 1.24-0.78 2.23-1.98 2.21-2.67-0.03-0.69 0.67-1.92 1.54-2.75 0.87-0.83 1.57-2.74 1.54-4.25-0.02-1.51-0.4-2.75-0.84-2.75-0.44 0-1.35 0.56-2.02 1.25-0.67 0.69-1.21 2.26-1.2 3.5 0.01 1.24-0.99 3.14-2.23 4.22-1.24 1.08-3.49 1.98-5 2-1.51 0.02-2.75-0.31-2.74-0.72 0-0.41 1.57-3.34 3.5-6.5 3.34-5.5 3.43-5.89 2.06-9-0.9-2.03-1.11-3.81-0.56-4.75 0.48-0.83 0.56-2.7 0.18-4.16-0.4-1.56-0.22-3.22 0.44-4 0.63-0.74 1.46-2.92 1.85-4.84 0.39-1.92 0.29-5.41-0.22-7.75-0.52-2.34-1.39-4.25-1.93-4.25-0.55 0-1.37 0.3-1.83 0.67zm21.02 1.89c-0.39 1.08-1.02 1.19-2.52 0.44q-2-1-4 0c-1.25 0.63-2.02 2.03-2.04 3.75-0.03 1.51 0.53 3.31 1.25 4 0.71 0.69 1.96 1.02 2.79 0.72 0.91-0.32 2.38 0.65 3.75 2.5 1.24 1.67 2.32 4.04 2.4 5.28 0.09 1.24-0.36 4.16-1 6.5-0.63 2.34-1.71 4.54-2.4 4.9-0.69 0.36-1.79-0.2-2.46-1.25-0.97-1.52-0.92-2.45 0.25-4.65 0.8-1.51 1.46-2.98 1.46-3.25 0-0.27-0.9-0.5-2-0.5-1.17 0-2.21 0.83-2.5 2-0.28 1.1-0.95 2-1.5 2-0.6 0-0.77-1.7-0.43-4.25 0.54-4.01 0.48-4.14-1.02-2.25-0.87 1.1-1.59 3.13-1.59 4.5 0 1.39 1.55 4.38 3.52 6.75 2.18 2.63 4.38 4.27 5.77 4.29 1.24 0.03 2.78-0.53 3.43-1.25 0.65-0.71 1.72-3.31 2.38-5.79 0.67-2.48 1.25-5.85 1.29-7.5 0.05-1.67-0.92-4.33-2.17-6-1.24-1.65-2.23-3.67-2.2-4.5q0.06-1.48 0.79-0.39c0.4 0.61 2.19 1.85 3.98 2.75 1.83 0.92 3.36 2.53 3.5 3.68 0.14 1.12 0.7 2.03 1.25 2.01 0.55-0.01 1-0.95 1-2.09 0-1.13-1.69-3.61-3.75-5.51-2.06-1.9-3.77-4.3-3.8-5.34-0.02-1.04-0.69-2.14-1.48-2.44-0.79-0.3-1.66 0.1-1.95 0.89zm-59.45 3.19c-0.66 1.18-0.61 2.73 0.15 4.75 0.97 2.57 0.82 3.46-1.04 6.25-1.2 1.79-2.2 3.81-2.22 4.5-0.03 0.69 0.65 1.81 1.5 2.5 0.84 0.69 2.66 1.02 4.04 0.75 2-0.4 2.5-1.1 2.5-3.5 0-1.69-0.66-3.33-1.52-3.75-1.35-0.67-1.33-1.25 0.16-5.25 0.93-2.48 1.39-5.29 1.02-6.25-0.36-0.96-1.32-1.75-2.13-1.75-0.81 0-1.92 0.79-2.46 1.75zm518.93 1.31c-1.93 1.07-5.19 1.95-7.25 1.94-2.06 0-4.65 0.45-5.75 1-1.1 0.55-2 1.9-2 3 0 1.29 1.15 2.51 3.25 3.45 1.79 0.79 5.39 1.69 8 2 3.4 0.39 5.04 1.12 5.75 2.55 0.91 1.82 0.67 2-2.75 1.98-2.06-0.01-5.1 0.43-6.75 0.97-1.65 0.53-3.34 1.67-3.75 2.51-0.49 1.01 0.03 2.25 1.5 3.59 1.24 1.13 3.37 2.26 4.75 2.51 1.37 0.26 4.3 0.94 6.5 1.5 2.2 0.57 5.57 1.44 7.5 1.94 1.92 0.49 4.53 2.16 5.79 3.7l2.28 2.8c3.11-3.87 4-5.79 3.97-6.75-0.02-0.96-0.38-1.77-0.79-1.79-0.41-0.03-1.31 0.65-2 1.5-1.12 1.38-1.48 1.36-3.53-0.21-1.26-0.96-6.1-2.81-10.75-4.1-4.66-1.3-9.15-2.54-9.97-2.78q-1.48-0.42-0.5-1.36c0.55-0.52 5.84-1.19 11.75-1.48 9.69-0.48 10.78-0.36 11.1 1.22 0.3 1.55 0.43 1.52 1.12-0.25 0.45-1.14 0.3-2.97-0.34-4.25-0.62-1.24-1.81-2.25-2.63-2.25-0.83 0-1.28 0.45-1 1 0.27 0.55-0.06 1.28-0.75 1.63-0.69 0.34-2.71 0.34-4.5 0-2.37-0.46-3.25-1.17-3.25-2.63 0-1.22 1.17-2.58 3-3.5 1.65-0.83 3.4-2.29 3.88-3.25 0.51-1.01 0.51-2.7 0-4-0.48-1.24-1.78-2.7-2.88-3.25-1.1-0.55-2.79-0.97-3.75-0.94-0.96 0.03-3.33 0.93-5.25 2zm38.86 6.56c-1 1.2-1.16 2.97-0.59 6.75 0.42 2.82 0.96 6.48 1.19 8.13 0.23 1.65 2.06 6.83 4.07 11.5 2.02 4.67 4.21 11.2 4.88 14.5 0.67 3.3 1.75 7.01 2.4 8.25 0.66 1.24 1.19 2.48 1.19 2.75 0 0.27-0.81 0.5-1.8 0.5-0.99 0-2.35 0.56-3.02 1.25-0.67 0.69-1.21 3.16-1.2 5.5 0.02 3.65 0.51 4.64 3.51 7 2.56 2.01 3.34 3.29 2.94 4.75-0.34 1.22 0.34 3.27 1.75 5.23 1.28 1.78 2.99 3.49 3.82 3.81 0.83 0.31 2.08-0.24 2.79-1.24 0.75-1.03 1.03-2.87 0.68-4.3-0.35-1.37-1.38-3.3-2.3-4.28-0.92-0.98-2.12-1.77-2.67-1.75-0.55 0.02-2.46-1.54-4.25-3.47-2.38-2.56-3.25-4.44-3.25-7 0-2.67 0.42-3.5 1.75-3.5 0.96 0.01 2.31-0.89 3-2 1.02-1.63 0.97-2.56-0.25-5-0.83-1.65-1.39-3.23-1.25-3.51 0.14-0.29 1.6 1.31 3.25 3.54 1.65 2.23 3.34 4.03 3.75 4.01 0.41-0.02 0.97-0.71 1.25-1.54 0.27-0.83-0.96-3.3-2.75-5.49-1.79-2.2-4.04-4.23-5-4.5-0.96-0.28-1.65-1.3-1.54-2.26 0.12-0.96-0.5-2.87-1.39-4.25-0.88-1.37-2.16-4.3-2.83-6.5-0.68-2.2-1.9-5.58-2.73-7.5-0.82-1.92-1.69-4.85-1.92-6.5-0.24-1.65-0.81-4.12-1.28-5.5-0.47-1.4-0.45-3.27 0.05-4.25 0.73-1.44 1.17-1.53 2.51-0.5 0.89 0.69 2.24 2.49 3 4 0.76 1.51 1.38 3.2 1.38 3.75 0 0.56-0.67 0.67-1.52 0.25-1.22-0.6-1.37-0.31-0.75 1.49 0.43 1.25 1.88 2.48 3.27 2.77 1.37 0.3 2.57 0.42 2.65 0.26 0.09-0.15 0.27-0.94 0.41-1.77 0.14-0.83-0.54-3.3-1.5-5.5-0.96-2.2-2.94-5.25-4.4-6.77-1.46-1.53-3.4-2.76-4.3-2.75-0.9 0.01-2.25 0.75-3 1.64zm-483.49 2.65c-0.62 0.68-2.08 2.02-3.25 2.98-1.23 1.02-2.02 2.69-1.87 4 0.18 1.65 0.98 2.32 3 2.5 1.93 0.18 3.18-0.42 4.18-2 0.79-1.24 1.54-3.58 1.66-5.21 0.13-1.88-0.3-3.06-1.19-3.23-0.77-0.15-1.91 0.29-2.53 0.96zm471.62 0.92c-1.14 1.2-2.06 3.23-2.03 4.5 0.02 1.27 0.38 2.3 0.79 2.3 0.41-0.01 1.65-1.19 2.75-2.63 1.96-2.55 2.07-2.57 5.25-0.98 1.79 0.89 3.25 1.17 3.25 0.62 0-0.55-1.13-2.12-2.5-3.5-1.38-1.37-3.16-2.5-3.96-2.5-0.81 0-2.4 0.98-3.55 2.19zm-557.49 1.48c-0.46 0.36-0.76 1.71-0.67 3 0.09 1.28 0.62 2.56 1.17 2.83 0.55 0.27 1 0.05 1-0.5 0-0.55 0.45-0.77 1-0.5 0.55 0.27 1 1.17 1 2 0 0.83 1.01 2.85 2.25 4.5l2.25 3.01c-3.54 4.25-4.78 6.28-5.04 7.24-0.25 0.96-0.91 1.75-1.46 1.75-0.55 0-1-0.45-1-1 0-0.55-0.71-1-1.58-1-0.86 0-2.89 1.35-4.5 3-1.6 1.65-2.9 4.01-2.89 5.25 0.02 1.24-0.84 3.38-1.91 4.75-1.07 1.38-3.15 4.98-4.61 8-1.47 3.02-3.42 6.71-4.34 8.19-0.92 1.48-1.32 3.06-0.89 3.5 0.43 0.45 1.62-0.09 2.64-1.19 1.03-1.1 3.24-4.7 4.91-8 1.66-3.3 3.75-6.67 4.64-7.5 0.89-0.83 1.6-2.85 1.57-4.5-0.03-1.65 0.62-4.01 1.45-5.25 1.2-1.79 2.18-2.15 4.76-1.75 2.92 0.44 3.64 0.01 7.05-4.25 3.11-3.89 3.69-5.29 3.21-7.75-0.33-1.65-1.2-3.67-1.93-4.5-0.74-0.83-1.67-2.62-2.08-4-0.41-1.37-1.47-3.3-2.37-4.28-0.9-0.98-1.89-1.77-2.21-1.75-0.32 0.02-0.96 0.33-1.42 0.7zm88.5 9.33c-1.1 1.1-2 2.67-2 3.5 0 0.83 0.9 2.4 2 3.5 1.1 1.1 3.69 2.43 5.75 2.96 2.71 0.69 4.11 0.62 5.04-0.25 0.72-0.67 1.28-1.77 1.25-2.46-0.02-0.69-0.72-1.25-1.54-1.25-0.83 0-1.76-1.23-2.08-2.75-0.32-1.51-1.11-3.33-1.75-4.04-0.64-0.72-1.96-1.28-2.92-1.25-0.96 0.02-2.65 0.94-3.75 2.04zm-26.31 8.75c-0.28 1.51-0.33 2.86-0.1 3 0.22 0.14 0.86 0.02 1.41-0.25 0.55-0.27 1-1.62 1-3 0-1.37-0.41-2.5-0.9-2.5-0.5 0-1.13 1.24-1.41 2.75zm821.34-0.71c-1.45 1.24-2.3 3-2.2 4.5 0.09 1.35 0.51 3.2 0.92 4.1 0.41 0.9 1.99 2.25 3.5 3 1.51 0.75 3.65 1.36 4.75 1.36 1.1 0 3.35-1.12 5-2.5 1.65-1.37 3-3.4 3-4.5 0-1.1-0.34-2.74-0.75-3.64-0.41-0.9-1.99-2.25-3.5-3-1.51-0.75-4.01-1.36-5.55-1.36-1.55 0-3.87 0.92-5.17 2.04zm-330.03 1.46c0 0.83 0.75 2.74 1.67 4.25 1.39 2.29 1.47 3.34 0.51 6.25-0.63 1.92-1.15 3.84-1.16 4.25-0.01 0.41 1.67 1.18 3.73 1.71 2.06 0.53 3.97 0.75 4.25 0.49 0.27-0.26-0.14-1.71-0.92-3.21-0.79-1.51-1.57-3.98-1.75-5.49-0.18-1.51-1.23-4.33-2.33-6.25-1.1-1.92-2.45-3.5-3-3.5-0.55 0-1 0.67-1 1.5zm60.5 0.17c-0.46 0.36-0.77 1.38-0.7 2.25 0.07 0.87 1.06 2.48 2.2 3.58 1.14 1.1 2.05 2.79 2.03 3.75-0.02 0.96 0.98 2.38 2.22 3.16 1.24 0.77 4.72 1.9 7.75 2.49 3.02 0.6 6.4 1.77 7.5 2.59l2 1.51c-3.1 2.35-5.13 3.03-6.5 3.02-1.38 0-3.4-0.62-4.5-1.37-1.1-0.75-3.35-1.57-5-1.84-1.88-0.3-3.7 0.12-4.87 1.11-1.81 1.52-1.75 1.69 1.5 4.43 2.47 2.09 4.04 2.7 5.87 2.28 1.79-0.41 3.71 0.28 6.75 2.4 2.34 1.63 4.26 3.76 4.28 4.72 0.01 0.96-1 2.69-2.25 3.85-1.26 1.15-4.53 3.13-7.28 4.4-2.75 1.27-6.02 3.25-7.28 4.4-1.32 1.23-2.26 3.25-2.25 4.85 0.02 1.51 0.59 3.92 1.28 5.35 0.69 1.42 2.82 3.51 4.75 4.64 2.4 1.41 4.36 1.85 6.25 1.4 1.51-0.35 4.66-1.8 7-3.22 2.34-1.42 4.81-2.32 5.5-2 0.69 0.32 1.26 1.82 1.26 3.33 0.01 1.51 0.35 3.82 0.75 5.13 0.41 1.32 1.98 3 3.49 3.75 1.51 0.76 2.76 1.93 2.78 2.62 0.01 0.69-2.8 2.07-6.25 3.07-3.45 1-7.63 1.59-9.28 1.31-1.67-0.28-5.54 0.35-8.75 1.43-3.16 1.07-7.3 2.95-9.19 4.19-1.89 1.24-4.08 3.38-4.88 4.75-0.79 1.38-3.68 4.98-6.41 8-2.73 3.02-5.29 6.85-5.7 8.5-0.4 1.65-1.26 3.62-1.9 4.38-0.64 0.76-2.3 1.79-3.67 2.28-1.38 0.49-3.18 0.66-4 0.37-0.97-0.34-1.41-1.59-1.25-3.53 0.18-2.16-0.31-3.28-1.75-4-1.6-0.8-1.9-1.7-1.5-4.5 0.3-2.07-0.11-4.72-1-6.5-1.38-2.75-1.33-3.35 0.53-7.25 1.81-3.78 1.93-5.08 1.09-11.75-0.51-4.12-0.75-8.96-0.53-10.75 0.23-1.79 0.05-3.25-0.39-3.25-0.44 0-1.35 0.56-2.02 1.25-0.67 0.69-1.17 3.27-1.12 5.75 0.05 2.48 0.41 6.52 0.8 9 0.54 3.4 0.25 5.6-1.18 9-1.64 3.9-1.73 5.04-0.67 8.5 0.67 2.2 0.94 5.24 0.61 6.75-0.48 2.11-0.04 3.33 1.88 5.25 1.37 1.38 2.27 3.17 2 4-0.28 0.83 0.51 2.46 1.75 3.64 1.77 1.69 3 2.02 5.75 1.54 2.22-0.39 4.69-1.9 6.75-4.15 1.79-1.94 3.24-4.32 3.23-5.28-0.01-0.96 1.38-3.1 3.1-4.75 1.72-1.65 4.84-5.48 6.93-8.5 3.24-4.68 4.78-5.91 10.4-8.25 4.58-1.91 8.34-2.75 12.34-2.76 3.16 0 7.77-0.75 10.25-1.67 2.47-0.91 5.08-2.15 5.79-2.74 0.72-0.59 1.28-1.87 1.25-2.83-0.02-0.96-0.91-2.54-1.97-3.5-1.06-0.96-2.54-2.2-3.28-2.75-0.75-0.55-1.68-2.91-2.08-5.25-0.46-2.74-1.51-4.79-2.96-5.78-2.09-1.42-2.68-1.3-8.25 1.63-5.53 2.9-6.22 3.04-8.85 1.77-1.56-0.75-3.59-2.62-4.5-4.14-1.48-2.49-1.5-3.04-0.15-5.36 0.86-1.48 3.22-3.19 5.5-3.98 2.2-0.76 5.72-2.62 7.82-4.14 2.11-1.51 4.06-3.65 4.35-4.75 0.29-1.1 0.27-2.9-0.03-4-0.3-1.1-1.8-3.24-3.34-4.76-1.69-1.67-4.28-2.95-6.55-3.25-2.06-0.27-4.09-1.03-4.5-1.7-0.55-0.9-0.1-1.01 1.75-0.42 1.37 0.44 3.4 1.03 4.5 1.33 1.1 0.3 3.24 0.26 4.75-0.08 1.51-0.34 3.42-1.29 4.25-2.12 0.82-0.83 1.5-2.4 1.5-3.5 0-1.1-0.68-2.67-1.5-3.5-0.83-0.83-4.31-1.81-7.75-2.19-3.74-0.41-6.77-1.31-7.54-2.25-0.7-0.86-2.39-3.02-3.75-4.81-1.35-1.79-2.12-3.25-1.71-3.25 0.41-0.01 5.92 1.79 12.25 4 6.32 2.2 12.07 4.79 12.77 5.75 0.69 0.96 1.26 2.09 1.25 2.5-0.01 0.41 0.99 1.04 2.23 1.4 1.24 0.35 2.7 1.27 3.25 2.03 0.55 0.77 1.9 1.4 3 1.41 1.1 0.01 3.24-0.23 4.75-0.54 2.38-0.47 2.83-0.18 3.37 2.2 0.33 1.51 0.1 4.55-0.52 6.75-0.63 2.2-2.26 5.58-3.63 7.5-1.74 2.43-2.5 4.8-2.49 7.75 0.02 3.34-0.51 4.68-2.48 6.25q-2.5 2-2.5 5c0 1.65 0.45 4.13 1 5.5 0.55 1.38 2.46 3.4 4.25 4.5 1.79 1.09 4.04 1.99 5 2 1.19 0 1.59-0.56 1.26-1.75-0.28-0.96-1.74-3.04-3.25-4.62-1.52-1.57-3.77-3.26-5.01-3.75-1.24-0.48-2.25-1.33-2.25-1.88 0-0.55 1.69-2.36 3.75-4.02 3.34-2.68 3.73-3.48 3.6-7.25-0.12-3.16 0.43-4.86 2.15-6.73 1.26-1.37 3.13-5.12 4.15-8.32 1.67-5.24 1.7-6.07 0.35-8.4-0.83-1.42-2.28-3.08-3.23-3.68-1.28-0.81-2.53-0.77-4.75 0.15-2.7 1.12-3.15 1.04-4.27-0.75-0.69-1.11-1.81-2.01-2.5-2-0.69 0-2.04-1.13-3-2.52-1.15-1.64-4.16-3.33-8.75-4.9-3.85-1.31-9.14-3.33-11.75-4.49-2.61-1.15-6.03-2.09-7.58-2.09-1.56 0-3.21 0.3-3.67 0.67zm-625.4 4.27c-0.05 2.23-0.41 4.85-0.79 5.81-0.62 1.58-0.51 1.6 1.05 0.25 1.03-0.89 1.75-2.99 1.79-5.19 0.03-2.03-0.4-3.97-0.95-4.31-0.6-0.37-1.04 1.01-1.1 3.44zm86.91-3.01c-2.28 0.37-3.58 1.18-3.75 2.32-0.21 1.38 0.47 1.75 3.24 1.75 1.92 0 3.69-0.34 3.91-0.75 0.23-0.41 1.92-0.73 3.75-0.69 1.84 0.03 4.69 1.05 6.34 2.28 1.65 1.23 3.45 2.21 4 2.19 0.55-0.02 1.45 0.95 2 2.16 0.55 1.2 3.02 3.27 5.5 4.59 3.12 1.66 5.11 3.65 6.5 6.47 1.1 2.24 2.67 4.31 3.5 4.6 0.82 0.29 4.65 3.24 8.5 6.54 3.85 3.31 8.57 7.66 10.5 9.66 1.92 2 4.23 4.05 5.12 4.54 0.9 0.5 2.99 3.16 4.65 5.91 1.67 2.75 4.64 6.13 6.62 7.5 1.98 1.38 3.61 2.95 3.62 3.5 0.01 0.55-1.34 3.14-3 5.75-1.65 2.61-3 5.54-2.98 6.5 0.01 0.96-1 2.75-2.25 3.98-1.26 1.22-3.41 2.24-4.78 2.26-1.38 0.01-3.4-0.6-4.5-1.35-1.1-0.76-3.46-1.67-5.25-2.01-1.79-0.35-3.25-0.86-3.25-1.13 0-0.27 0.97-1.29 2.16-2.25 1.41-1.15 1.92-2.35 1.5-3.5-0.37-0.96-1.67-1.87-2.91-2.01-1.24-0.14-3.49 0.31-5 1-1.51 0.69-2.75 1.71-2.75 2.26 0 0.55 1.24 1.46 2.75 2.01 1.51 0.56 2.52 1.22 2.25 1.48-0.28 0.25-6.35 1.15-13.5 2.01-7.15 0.85-15.25 2.27-18 3.14-2.75 0.87-8.38 1.97-12.5 2.43-4.13 0.47-11.33 1.31-16 1.88-5.78 0.7-10.1 1.88-13.5 3.7-2.75 1.46-6.35 3.61-7.99 4.76-1.65 1.15-5.81 3.55-9.25 5.34-3.44 1.79-6.82 3.24-7.51 3.23-0.69 0-5.53 2.06-10.75 4.59-5.23 2.53-16.25 7.3-24.5 10.61-8.25 3.31-17.7 7.38-21 9.05-3.3 1.66-7.24 3.87-8.75 4.9-1.51 1.03-3.88 4.35-5.25 7.37-1.38 3.02-3.4 5.95-4.5 6.5-1.1 0.55-2.9 1-4 1-1.18 0-2.57-1.13-3.4-2.75-0.76-1.51-1.94-4.77-2.61-7.25-0.67-2.48-1.62-7.42-2.1-11-0.79-5.94-1.3-6.95-5.88-11.75-2.76-2.89-5.01-5.92-5.01-6.75 0-0.83 0.66-2.51 1.46-3.75q1.46-2.25 0.52-3.75c-0.52-0.83-2.41-2.18-4.21-3.01-2.57-1.18-3.27-2.12-3.27-4.34 0-2.4 0.61-3.06 4-4.27 2.2-0.79 4.43-1.53 4.95-1.66 0.53-0.12 1.02 0.45 1.1 1.28 0.08 0.83 0.21 2.06 0.3 2.75 0.08 0.69 1.05 1.25 2.15 1.25q2 0 2-2c0-1.1-1.24-3.14-2.75-4.54-1.61-1.49-3.37-2.29-4.25-1.93-0.83 0.33-2.81 0.92-4.41 1.29-1.6 0.37-3.97 1.69-5.25 2.93-1.29 1.24-2.34 3.38-2.34 4.75 0 1.38 1.24 3.77 2.75 5.33 1.51 1.56 3.38 3.02 4.14 3.25 1.2 0.36 1.2 0.75 0 2.68-1.25 2.04-1.09 2.83 1.61 7.92 1.65 3.11 4.35 6.66 6 7.9 2.66 2 3.08 3.03 3.66 9.09 0.37 3.75 1.35 9.08 2.19 11.83 0.84 2.75 2.79 6.25 4.34 7.79 1.54 1.53 3.6 2.77 4.56 2.75 0.96-0.02 3.09-0.83 4.73-1.79 1.7-0.99 4.41-4.35 6.26-7.75 2.9-5.31 4.07-6.43 10.27-9.73 3.84-2.05 10.36-5.07 14.49-6.72 4.12-1.64 12.22-4.94 18-7.33 5.77-2.39 13.65-5.98 17.5-7.98 3.85-2 7.34-3.43 7.75-3.19 0.41 0.25 2.44-0.59 4.5-1.86 2.06-1.27 5.32-2.92 7.25-3.66 1.92-0.75 4.4-2.1 5.5-3.01 1.1-0.91 3.24-2.41 4.75-3.34 1.51-0.92 5.67-2.58 9.25-3.68 3.57-1.1 6.95-1.77 7.5-1.5 0.55 0.27 3.81-0.17 7.25-0.99 3.44-0.81 8.05-1.49 10.25-1.51 2.2-0.01 6.25-0.7 9-1.53 2.75-0.84 10.51-2.18 17.25-2.99 6.74-0.82 12.81-1.76 13.5-2.1 0.69-0.34 2.15-0.14 3.25 0.45 1.1 0.6 3.8 1.79 6 2.65 2.2 0.86 5.69 1.56 7.75 1.54 3.36-0.02 3.93 0.37 5.5 3.73 1 2.14 3.04 4.37 4.75 5.2 1.65 0.8 4.64 1.48 6.65 1.5 2.31 0.03 4.42-0.68 5.78-1.95 1.29-1.21 2.12-3.19 2.1-5-0.02-1.95 0.67-3.44 1.97-4.25 1.1-0.69 2.02-2.04 2.04-3 0.03-0.96-0.68-2.42-1.57-3.25-1.3-1.2-1.76-1.24-2.3-0.2-0.53 1.03-0.99 0.97-2.17-0.3-1.18-1.27-1.64-1.33-2.15-0.3-0.36 0.71-0.25 2.65 0.25 4.3 0.49 1.65 0.9 4.46 0.9 6.25 0 2.65-0.5 3.42-2.75 4.18-2.07 0.69-3.73 0.46-6.75-0.96-2.94-1.38-4.2-2.68-4.75-4.92-0.48-1.94-0.3-3.78 0.5-5.05 0.69-1.11 1.92-1.99 2.75-1.96 1.23 0.04 1.27-0.23 0.25-1.5-0.69-0.84-1.03-2.66-0.75-4.04 0.28-1.4 1.38-2.72 2.5-3 1.63-0.41 2-1.33 2-5 0-2.48-0.59-5.06-1.32-5.75-0.72-0.69-2.74-2.49-4.5-4-1.75-1.51-4.08-4.77-5.18-7.25-1.41-3.17-2.59-4.5-4-4.5-1.1 0-2.45-0.9-3-2-0.55-1.1-1.68-2-2.5-2-0.83 0-2.06-1.4-2.75-3.12-0.73-1.8-3.04-4.22-5.51-5.75-2.34-1.44-4.47-3.3-4.73-4.13-0.27-0.83-1.5-2.04-2.75-2.71-1.24-0.66-3.08-1.56-4.08-2-1-0.43-2.15-2.14-2.55-3.79-0.49-1.98-1.81-3.51-3.89-4.5-1.72-0.83-4.62-3.17-6.44-5.2-1.81-2.04-3.98-3.72-4.8-3.73-0.83-0.01-2.48-1.04-3.69-2.29-1.58-1.65-3.38-2.3-6.5-2.35-2.37-0.04-5.88 0.19-7.8 0.5zm726.64 9.07c-1.46 1.1-3.66 2-4.9 2.01-1.24 0.01-4.5 0.7-7.25 1.54-2.75 0.85-5.8 2.31-6.78 3.24-0.98 0.94-1.77 2.5-1.75 3.46 0.02 0.96 1.13 2.76 2.48 4 1.93 1.77 2.33 2.89 1.87 5.25-0.48 2.4-0.12 3.35 1.79 4.76 1.32 0.96 3.96 1.74 5.89 1.72 1.92-0.02 4.17-0.67 5-1.45 0.82-0.78 3.11-1.55 5.07-1.72 1.97-0.17 4.38-0.98 5.37-1.81 0.98-0.83 2.57-3.08 3.51-5 1.29-2.61 1.55-4.65 1.02-8-0.38-2.48-0.98-5.17-1.31-6-0.34-0.83-1.75-2.06-3.14-2.75-1.38-0.69-2.9-1.25-3.37-1.25-0.46 0-2.04 0.9-3.5 2zm-734.65 2c-0.83 0.53-2.65 0.98-4.06 0.98-1.79 0.02-3.21 1.01-4.68 3.27-1.16 1.79-1.92 3.81-1.69 4.5 0.24 0.69 0.88 1.25 1.43 1.25 0.55 0 1.01-0.56 1.02-1.25 0-0.69 0.34-1.82 0.75-2.52 0.4-0.69 2.3-1.52 4.23-1.84 1.92-0.32 4.06-0.99 4.75-1.48 0.76-0.55 2.04-0.52 3.25 0.09 1.1 0.55 1.99 1.79 1.97 2.75-0.01 0.96 1 2.8 2.25 4.08 1.57 1.61 3.06 2.2 4.78 1.88 1.37-0.25 3.29-0.74 4.25-1.08 1.26-0.45 2.24 0.22 3.5 2.4 0.96 1.66 2.76 3.24 4 3.5 1.24 0.26 3.37 0.7 4.75 0.97q2.5 0.5 4.5 4.5c1.1 2.2 2.56 4.19 3.25 4.42 0.69 0.23 2.37 0.64 3.75 0.92 1.53 0.31 3.08 1.71 4 3.62 0.82 1.72 1.95 3.08 2.5 3.04 0.55-0.04 2.25 1.18 3.79 2.71 1.73 1.74 2.77 3.83 2.75 5.54-0.03 1.97 0.81 3.32 2.96 4.75 1.65 1.1 2.77 2.45 2.5 3-0.28 0.55-2.31 1.56-4.52 2.25-2.22 0.69-4.02 1.59-4 2 0.01 0.41 0.47 0.98 1.02 1.25 0.55 0.27 2.46-0.18 4.25-1.02 1.79-0.84 3.92-1.49 4.75-1.46 0.82 0.04 2.17-0.67 3-1.57 1.34-1.47 1.31-1.75-0.25-2.55-0.96-0.49-1.75-1.57-1.75-2.4 0-0.83-1.13-1.73-2.5-2-2.05-0.41-2.5-1.09-2.52-3.75-0.01-2.18-0.91-4.16-2.75-6.02-1.5-1.53-3.18-2.76-3.73-2.74-0.55 0.02-1.79-1.32-2.75-2.98-1.03-1.76-3.61-3.84-6.25-5.01-2.48-1.1-4.5-2.67-4.5-3.5 0-0.83-0.79-2.32-1.75-3.33-0.96-1.01-3.66-2.13-6-2.5-3.08-0.49-4.52-1.29-5.22-2.92-0.53-1.24-1.65-3.15-2.49-4.25-1.34-1.75-1.81-1.84-3.78-0.68-1.24 0.72-3.58 1.17-5.18 1-2.24-0.25-3.15-1.02-3.89-3.32-0.53-1.65-1.46-3.58-2.07-4.29-0.62-0.72-2.25-1.27-3.62-1.24-1.38 0.03-3.18 0.5-4 1.03zm-71 2.5c-1.14 1.28-1.24 2.07-0.39 3.34 0.61 0.91 2.18 1.66 3.5 1.66 1.74 0 2.46-0.61 2.64-2.25 0.16-1.4-0.22-2.12-1-1.91-0.69 0.18-1.7-0.31-2.25-1.09-0.85-1.22-1.22-1.19-2.5 0.25zm52.25 1.14c-1.24 0.2-2.25 0.81-2.25 1.36 0 0.55-1.46 1.36-3.25 1.81-2.43 0.6-3.32 1.43-3.53 3.25-0.16 1.34 0.19 2.89 0.77 3.44 0.59 0.55 1.22 3.25 1.42 6 0.2 2.75 0.75 6.96 1.23 9.35 0.64 3.23 0.54 4.45-0.39 4.75-0.69 0.22-1.24 1.19-1.22 2.15 0.01 0.96 0.7 2.42 1.53 3.25 1.35 1.34 1.27 1.98-0.77 5.93-1.26 2.43-3.64 5.42-5.29 6.63-1.65 1.21-3.68 3.63-4.5 5.36-1.11 2.33-2.15 3.15-4 3.11-1.38-0.02-4.78 1.64-7.59 3.71-2.8 2.07-7.19 5.22-9.75 7.01-2.56 1.79-5.34 4.38-6.16 5.75-1.21 2.02-1.26 2.8-0.25 4.08 0.84 1.06 2.07 1.37 3.75 0.94 1.37-0.35 5.77-1.85 9.76-3.33 3.99-1.48 7.25-3.25 7.25-3.94-0.01-0.69-0.82-1.25-1.81-1.25-0.99 0-2.23 0.41-2.75 0.91-0.52 0.5-3.43 1.62-6.45 2.48-3.03 0.87-5.61 1.36-5.75 1.09-0.14-0.26-0.09-0.82 0.11-1.23 0.2-0.41 4.14-3.27 8.75-6.36 4.62-3.08 9.51-5.87 10.89-6.18 1.37-0.32 4.3-2.45 6.5-4.72 2.2-2.28 5.35-5.48 7-7.12 1.65-1.64 3.55-4.64 4.22-6.67 0.96-2.91 0.96-4.37 0-6.86-0.97-2.51-0.96-3.49 0.03-4.75 1.01-1.28 0.95-2.61-0.27-6.84-1.03-3.56-1.24-6.22-0.66-8.25 0.59-2.07 0.44-3.7-0.48-5.25-0.74-1.24-1.12-2.92-0.84-3.75 0.27-0.83 1.62-1.5 3-1.5 1.37 0 2.5-0.45 2.5-1 0-0.55 1.35-1 3-1q3 0 3-1.5c0-0.93-0.86-1.45-2.25-1.36-1.24 0.07-3.26 0.3-4.5 0.5zm-68.8 3.31c-0.87 1.62-1.56 4.32-1.52 6 0.04 1.68 0.52 3.28 1.07 3.55 0.55 0.27 1.32-0.06 1.7-0.75 0.39-0.69 0.61-2.49 0.5-4-0.11-1.51 0.15-3.87 0.57-5.25 0.43-1.37 0.44-2.5 0.03-2.5-0.42 0-1.47 1.33-2.35 2.95zm584.46 0.12c-2.81 2.64-3.72 3.01-5.16 2.07-1.45-0.94-1.71-0.84-1.49 0.61 0.16 1.12 1.33 1.87 3.25 2.08 1.64 0.19 3.77 1.09 4.72 2 1.31 1.26 2.04 1.39 3 0.53 0.7-0.62 1.49-2.56 1.77-4.3q0.5-3.16-1.09-4.67c-1.42-1.36-1.93-1.19-5 1.68zm-20.89-0.9c-0.78 0.68-1.33 2.04-1.22 3.03 0.18 1.59-0.49 1.76-5.55 1.42-3.16-0.2-10.93 0.5-17.25 1.57l-11.5 1.93-9.64-4.62c-11.13 2.92-16.57 5.17-19.26 6.88-2.7 1.72-6.13 4.7-7.62 6.62-1.5 1.92-4.97 7.33-7.71 12-2.75 4.67-6.6 11.42-8.57 15-1.96 3.58-5.51 9.06-7.88 12.18-2.38 3.13-5.67 7.37-7.32 9.43-2.35 2.94-3.11 5.05-3.5 9.7-0.47 5.54-0.36 5.92 1.5 5.56 1.59-0.31 2.1-1.41 2.5-5.41 0.38-3.81 1.36-6.08 4.1-9.49 1.98-2.46 5.41-7.17 7.61-10.47 2.21-3.3 7.07-11.4 10.8-18 3.73-6.6 8.41-14.07 10.39-16.61 1.98-2.54 5.17-5.74 7.1-7.12 1.92-1.37 6.65-3.5 10.5-4.72l7-2.22c8.07 4.03 9.93 4.36 13.5 3.84 2.47-0.36 7.65-1.12 11.5-1.69 3.85-0.57 11.27-0.99 16.5-0.93 7.58 0.08 9.8-0.23 11-1.52 1.34-1.45 1.28-1.91-0.61-4.33-1.15-1.48-2.74-2.83-3.53-2.98-0.78-0.15-2.06 0.27-2.84 0.95zm-543.83 5.08c-0.57 0.69-1.97 3.39-3.11 6-1.15 2.61-2.08 4.98-2.08 5.25 0 0.27 0.67 0.5 1.5 0.5 0.82 0 2.06-1.14 2.75-2.53 0.69-1.39 1.59-2.51 2-2.5 0.41 0.02 0.59 0.59 0.39 1.28-0.2 0.69-0.65 2.26-1 3.5-0.36 1.26-0.2 2.25 0.36 2.25 0.55 0 1.63-1.01 2.39-2.25 0.77-1.24 2-3.9 2.75-5.91 1.17-3.16 1.15-3.88-0.14-5.29-0.83-0.9-2.24-1.62-3.14-1.59-0.9 0.02-2.1 0.6-2.67 1.29zm755.31 4.23c-2.87 2.47-4.99 3.46-7.5 3.48-1.93 0.03-5.98-0.86-9-1.96-3.03-1.1-6.51-2-7.75-2-1.24 0-5.06 1.26-8.5 2.79-3.44 1.54-6.59 3.34-7 4-0.41 0.67-2.89 1.87-5.5 2.69-2.61 0.81-6.07 2.83-7.69 4.5-1.61 1.66-3.52 3.02-4.25 3.02-0.72 0-1.31 0.67-1.31 1.5 0 0.83 0.34 1.7 0.75 1.94 0.41 0.24 3.45-1.57 6.75-4.01 3.3-2.44 6.79-4.44 7.75-4.44 0.96 0.01 3.66-1.28 6-2.85 2.34-1.57 6.27-3.65 8.75-4.62 4.2-1.65 4.78-1.66 8.75-0.14 2.34 0.89 6.27 2.07 8.75 2.62 3.17 0.71 5.16 0.67 6.75-0.12 1.24-0.62 3.6-2.46 5.25-4.1l3-2.98c12.19 4.53 12.98 5.14 12.82 7.27-0.1 1.34 0.35 3.69 1 5.23 0.65 1.54 2.64 3.45 4.43 4.25 2.19 0.98 7.58 1.53 16.5 1.7 11.04 0.21 13.79-0.04 16.5-1.5 1.79-0.96 3.25-2.2 3.25-2.75 0-0.55-0.56-1.26-1.25-1.57-0.69-0.32-3.39 0.36-6 1.5-4.14 1.81-5.99 1.99-14.5 1.46-5.36-0.33-10.65-1.06-11.75-1.63-1.1-0.56-2.8-1.75-3.78-2.64-1.01-0.91-1.75-2.93-1.71-4.62 0.04-1.65-0.5-3.55-1.22-4.21-0.71-0.67-3.77-2.13-6.79-3.26-3.03-1.12-5.95-2.03-6.5-2.02-0.55 0.01-2.8 1.57-5 3.47zm-767 8.19c-0.46 0.36-0.77 1.6-0.68 2.75 0.08 1.14 0.6 3.54 1.16 5.33 0.63 2.01 1.69 3.27 2.77 3.29 0.96 0.03 2.29-0.53 2.95-1.25 0.65-0.71 1.33-2.69 1.5-4.4 0.17-1.74-0.36-3.84-1.2-4.79-0.83-0.93-2.44-1.67-3.58-1.64-1.15 0.02-2.46 0.34-2.92 0.71zm-13.75 4.26c-0.86 1.07-1.71 3.38-1.9 5.15-0.22 1.97 0.13 3.34 0.9 3.56 0.69 0.2 1.25-0.31 1.25-1.14 0-0.83 0.67-2.62 1.5-4 0.82-1.37 1.84-2.31 2.25-2.08 0.41 0.23 0.52 1.89 0.25 3.68-0.33 2.16-1.63 4.14-3.83 5.83-2.05 1.59-5.02 5.91-7.75 11.32-2.43 4.81-5.52 9.76-6.86 11-1.35 1.24-2.9 3.38-3.46 4.75-0.55 1.38-0.69 2.85-0.3 3.28 0.38 0.43 1.82 0.78 3.2 0.78 1.37 0.01 3.74-0.91 5.25-2.03 1.51-1.11 2.75-2.48 2.75-3.03 0-0.55-1.35-0.1-3 1-1.65 1.1-3.45 2-4 2-0.55 0-1-0.23-1-0.5 0-0.27 1.93-3.31 4.3-6.75 2.36-3.44 6.08-9.35 8.25-13.14 2.17-3.79 4.43-7.16 5.01-7.5 0.58-0.33 1.82-1.73 2.76-3.11 0.93-1.37 1.7-3.85 1.7-5.5 0.01-1.65-0.56-3.57-1.25-4.27-0.7-0.69-1.99-1.26-2.87-1.25-0.88 0.01-2.3 0.89-3.15 1.95zm7.32 11.27c-1.13 1.82-2.05 3.53-2.04 3.8 0.02 0.27-2.46 4.89-5.5 10.25-3.04 5.36-5.08 9.75-4.53 9.75 0.55 0 2.35-1.58 4-3.5 1.65-1.92 4.63-6.76 6.63-10.75 1.99-3.99 4.02-8.26 4.5-9.5 0.52-1.34 0.49-2.47-0.06-2.8-0.52-0.3-1.87 0.94-3 2.75zm943.22-0.95c-1.13 1.24-2.78 3.71-3.67 5.5-0.89 1.79-1.62 4.04-1.62 5-0.01 0.96 1.01 2.42 2.25 3.25 1.24 0.82 3.26 1.83 4.5 2.25 1.29 0.43 2.46 0.32 2.75-0.25 0.27-0.55-0.63-1.23-2-1.5-1.87-0.37-2.5-1.13-2.5-3 0-1.37-0.45-2.61-1.01-2.75-0.56-0.14 0.12-1.94 1.5-4 1.97-2.95 3.07-3.7 5.16-3.5 1.46 0.14 3.14 1.06 3.75 2.06 0.86 1.42 0.73 2.12-0.65 3.25-1.22 1-1.6 2.35-1.25 4.44 0.27 1.65 0.76 3 1.07 3 0.32 0 1.22-0.67 2-1.5 0.79-0.83 1.72-3.19 2.07-5.25 0.44-2.62 0.14-4.58-1-6.5-1.33-2.24-2.35-2.75-5.47-2.75-2.7 0-4.44 0.67-5.88 2.25zm-239.57 4.91c-1.32 2.94-3.72 6.37-5.31 7.62-1.6 1.26-3.25 2.27-3.66 2.25-0.41-0.01-1.76-1.12-3-2.46-1.29-1.4-2.79-2.14-3.53-1.75-0.99 0.52-0.81 1.32 0.75 3.43 1.57 2.13 2.87 2.76 5.78 2.78 2.25 0.03 4.85-0.78 6.5-2 1.51-1.11 3.6-3.72 4.64-5.78 1.05-2.06 2-4.83 2.12-6.15 0.12-1.32-0.25-2.6-0.83-2.84-0.57-0.24-2.13 1.97-3.46 4.9zm-731.91 8.55c-0.86 0.99-2.3 3.25-3.19 5.04-0.89 1.79-1.63 4.04-1.64 5-0.01 0.96-1.37 3.77-3.03 6.25-1.65 2.48-2.99 5.06-2.98 5.75 0.02 0.69 0.48 1.48 1.03 1.75 0.55 0.27 1.54-0.74 2.19-2.25 0.66-1.51 1.97-3.65 2.91-4.75 0.95-1.1 2.18-3.8 2.75-6 0.56-2.2 1.98-5.12 3.14-6.5 2.06-2.44 2.1-2.44 1.56-0.25q-0.55 2.26 0.7 1.92c0.69-0.19 1.25-1.86 1.25-3.74 0-2.29-0.51-3.5-1.56-3.7-0.86-0.17-2.27 0.5-3.13 1.48zm129.19 0.85c-4.97 1.84-7.68 2.27-11.5 1.84-4.6-0.51-5.24-0.31-8 2.49-2.37 2.4-2.75 3.31-1.8 4.32 0.78 0.83 2.55 1.09 5 0.73 2.09-0.3 4.36-0.89 5.05-1.3 0.69-0.42 1.25-1.41 1.25-2.2q0.01-1.44 3.25-1.45c1.79-0.01 5.27-0.75 7.75-1.65 2.47-0.9 6.75-1.96 9.5-2.36 2.75-0.4 5.79-0.34 6.75 0.15 1.04 0.51 2.77 0.46 4.25-0.13 1.37-0.55 2.5-1.45 2.5-2 0-0.6-3.53-0.97-8.75-0.92-6.63 0.05-10.32 0.65-15.25 2.48zm-43.5 15.06c-3.3 1.41-6.68 2.92-7.5 3.33-0.83 0.42-1.61 1.39-1.75 2.16-0.18 0.98 0.54 1.27 2.5 0.99 1.51-0.21 3.09-1 3.5-1.75 0.41-0.74 1.76-1.35 3-1.35 1.24 0 4.16-0.79 6.5-1.75 2.33-0.96 4.24-2.31 4.25-3 0-0.69-1.01-1.24-2.25-1.23-1.24 0.01-4.95 1.18-8.25 2.6zm130.15 7.38c-0.91 1.1-1.43 2.45-1.15 3 0.27 0.55-0.18 2.13-1 3.5-0.83 1.38-1.52 3.74-1.53 5.25-0.02 1.51 0.82 3.88 1.86 5.25 1.05 1.38 5 4.03 8.79 5.9 5.6 2.77 7.58 3.28 10.63 2.75 3.32-0.58 3.97-0.33 5.69 2.1 1.38 1.96 1.89 4.19 1.75 7.75-0.15 4.18 0.31 5.63 2.81 8.88 1.65 2.13 4.24 4.49 5.75 5.25 1.51 0.75 4.44 1.37 6.5 1.36 2.06 0 4.87-0.6 6.25-1.34 1.37-0.74 4.52-1.73 7-2.2 2.47-0.47 6.07-0.75 8-0.6 2.47 0.18 4.53-0.5 7-2.31 1.92-1.42 4.06-2.57 4.75-2.56 0.69 0.01 2.6 1.15 4.25 2.52 1.66 1.38 4.23 2.48 5.75 2.45 2-0.03 3.5 0.93 5.5 3.5 1.51 1.95 3.65 3.78 4.75 4.05q2 0.5 2 3c0 1.38 1.01 3.41 2.25 4.52 1.24 1.11 3.26 2.01 4.5 2 1.24-0.01 3.26-0.53 4.5-1.15 1.94-0.98 2.88-0.66 6.75 2.22 2.47 1.84 5.85 4.56 7.5 6.04 1.65 1.47 3.9 2.84 5 3.03 1.2 0.2 3 2.28 4.5 5.19 1.47 2.84 3.74 5.49 5.5 6.41 1.65 0.86 3.55 2.27 4.22 3.15 0.67 0.87 1.23 2.15 1.25 2.84 0.02 0.69 1.04 2.64 2.28 4.35 1.24 1.7 3.49 3.73 5 4.5 1.51 0.77 3.87 1.17 5.25 0.9 1.73-0.35 2.76 0.04 3.36 1.25 0.48 0.96 1.6 2.09 2.5 2.5 1.06 0.48 1.91 0.21 2.39-0.77 0.49-0.99-0.11-2.38-1.75-4.02q-2.5-2.51-5.75-2.49c-1.79 0.02-4.38-0.42-5.75-0.97-1.38-0.55-2.77-2.01-3.1-3.25-0.33-1.24-1.79-3.99-3.25-6.12-1.46-2.13-3.69-4.38-4.96-5-1.27-0.62-3.3-3.15-4.5-5.63-1.37-2.82-2.94-4.6-4.19-4.76-1.1-0.14-3.8-2.06-6-4.26-2.2-2.21-4.45-4.01-5-4.02-0.55 0-2.05-1.01-3.34-2.23-1.94-1.85-3.47-2.23-9-2.23h-6.66c-0.45-5.91-1.14-6.77-4-8-1.93-0.83-4.11-2.74-4.86-4.25-0.75-1.51-2.1-3.09-3-3.5-0.9-0.41-2.99-0.75-4.64-0.75-1.65 0-3-0.45-3-1 0-0.55-1.15-1.79-2.55-2.75-2.45-1.68-2.72-1.67-6.62 0.25-2.23 1.1-4.57 2.6-5.19 3.33-0.75 0.87-2.33 1.12-4.64 0.74-1.93-0.33-5.75 0.05-8.5 0.83-2.75 0.79-6.42 2.03-8.16 2.77-2.79 1.18-3.64 1.1-7.35-0.67-2.3-1.1-5.16-3.03-6.34-4.3-1.86-1.98-2.04-2.93-1.37-7 0.67-4.03 0.45-5.2-1.54-8.2-1.27-1.92-3.54-4.06-5.03-4.75-2.17-1-3.1-1-4.64 0-1.6 1.04-2.65 0.91-6.2-0.75-2.35-1.1-5.98-3.24-8.07-4.75-2.42-1.75-3.81-3.57-3.84-5-0.02-1.24 1.56-3.94 3.5-6 2.91-3.09 3.36-4.1 2.54-5.75-0.55-1.1-1.61-2-2.35-2-0.75 0-2.1 0.9-3 2zm36.81 8.4c-0.71 1.26-0.44 2.23 1.04 3.71 1.63 1.63 2.23 1.76 3.24 0.69 0.99-1.04 0.78-1.78-1.04-3.7-2.08-2.18-2.37-2.24-3.24-0.7zm6.19 5.95c-1.46 1.04-1.39 1.37 0.62 3.38 1.23 1.22 2.68 2.26 3.23 2.29 0.55 0.04 1.56-0.63 2.25-1.48 1.05-1.29 0.78-1.85-1.62-3.44-2.25-1.5-3.21-1.66-4.48-0.75zm-11.92 6.23c2.07 3.07 4.89 6.26 6.27 7.09 1.73 1.04 2.81 1.18 3.5 0.46q1.01-1.03-0.75-3.58c-0.96-1.4-2.43-2.55-3.25-2.55-0.83 0-1.28-0.34-1.01-0.75 0.26-0.41-0.64-1.99-2-3.5-1.37-1.51-3.4-2.75-4.51-2.75-1.81 0-1.64 0.56 1.75 5.58zm237.77-3.01c-0.9 0.87-1.61 1.77-1.57 2 0.04 0.24 0.74 1.78 1.57 3.43 0.82 1.65 1.95 3 2.5 3 0.55 0 1.11-1.41 1.25-3.13l0.25-3.13c4.33 6.54 5.56 9.19 5.52 10.1-0.03 0.91-1.29 2.91-2.79 4.43-1.5 1.53-3.29 2.76-3.98 2.75-0.69-0.01-2.12-1.26-3.18-2.77-1.31-1.86-2.27-2.43-2.98-1.75-0.71 0.69-0.42 2.01 0.94 4.25 1.52 2.51 2.66 3.25 4.97 3.25 2.1 0 4.06-1.06 6.5-3.5 2.53-2.53 3.51-4.4 3.53-6.75 0.02-1.79-0.88-4.49-2-6-1.11-1.51-2.02-3.31-2.01-4 0.01-0.69-0.56-1.82-1.25-2.52-0.7-0.69-2.25-1.26-3.45-1.25-1.2 0.01-2.92 0.73-3.82 1.59zm-15.13 6.76c-1.88 2.84-4.36 8.32-5.52 12.17-1.15 3.85-2.39 9.25-2.75 12-0.47 3.51-1.47 5.82-3.38 7.75-2.27 2.29-2.72 3.63-2.72 8 0.01 3.91-0.6 6.14-2.39 8.75-1.32 1.92-2.79 4.81-3.26 6.41-0.47 1.59-1.41 3.06-2.1 3.25-0.71 0.19-1.26 1.96-1.27 4.09-0.02 2.51-0.76 4.5-2.25 6.01-2.11 2.14-2.16 2.53-0.9 7 0.72 2.61 2.19 6.2 3.25 7.99 1.05 1.79 1.69 3.92 1.42 4.75-0.28 0.83-1.4 1.5-2.5 1.5-1.1 0-2.23 0.45-2.5 1-0.28 0.55-1.74 0.99-3.25 0.99-1.74-0.01-3.48-0.95-4.75-2.56-1.97-2.51-2.12-2.53-11.5-1.81-9.21 0.72-9.62 0.85-13.5 4.52-3.71 3.52-4.22 3.71-7 2.66-1.65-0.62-3.79-0.83-4.75-0.46-0.96 0.36-2.13 2.12-2.59 3.91-0.8 3.1-1.03 3.24-5.25 3-2.42-0.13-4.97 0.2-5.66 0.75-0.84 0.67-2.25 0.59-4.33-0.25-1.96-0.8-3.27-2.16-3.61-3.75-0.4-1.9 0.11-2.98 2.16-4.5 2.13-1.59 2.56-2.56 2.1-4.75-0.31-1.51-1.02-2.75-1.57-2.75-0.55 0-0.99 0.56-0.98 1.25 0.01 0.69-1.13 2.83-2.52 4.75-1.39 1.92-2.54 4.4-2.55 5.5-0.01 1.1 0.84 3.13 1.89 4.5 1.05 1.38 3.54 3.06 5.53 3.75 3.07 1.06 3.9 1.01 5.38-0.28 1.4-1.22 2.25-1.3 4.25-0.39 1.84 0.83 3.1 0.84 4.75 0.03 1.25-0.62 2.62-2.55 3.09-4.36 0.47-1.82 1.46-3.21 2.25-3.16 0.77 0.05 2.53 0.38 3.91 0.74 2.01 0.52 3.28-0.1 6.5-3.21 3.81-3.68 4.39-3.89 12.25-4.49 8.04-0.61 8.29-0.56 10 1.92 0.99 1.44 3.06 2.77 4.75 3.06 1.81 0.31 4.79-0.27 7.5-1.45 2.47-1.07 4.84-2.67 5.25-3.56 0.41-0.88 0.75-2.5 0.75-3.6 0-1.1-0.9-3.24-2.01-4.75-1.1-1.51-2.23-4.44-2.5-6.5-0.34-2.6 0.07-4.6 1.32-6.5 0.99-1.51 2.41-5.23 3.15-8.25 0.74-3.02 2.86-7.64 4.7-10.25 3-4.26 3.28-5.24 2.74-9.5-0.54-4.37-0.34-4.99 2.53-7.75 2.49-2.4 3.1-3.8 3.07-7-0.02-2.2 0.39-4.45 0.91-5 0.52-0.55 1.69-4.15 2.59-8 0.91-3.85 2.85-8.68 4.32-10.73 1.48-2.05 2.9-3.74 3.18-3.75 0.27-0.01 0.4 1.67 0.27 3.73-0.12 2.06-0.34 4.42-0.5 5.25-0.15 0.83 0.07 1.61 0.48 1.75 0.41 0.14 1.42 0.25 2.25 0.25 0.82 0 1.51-0.79 1.52-1.75 0.01-0.96-0.56-2.31-1.25-2.99-1.02-1-0.98-1.71 0.23-3.7 1.12-1.85 1.22-2.79 0.38-3.76-0.62-0.72-2.13-1.6-3.35-1.97-1.88-0.56-2.77 0.15-5.66 4.5zm-201.37 0.17c0 1.42 0.58 2.5 1.33 2.5 0.74 0 1.62-0.34 1.98-0.75 0.35-0.41 0.2-1.54-0.34-2.5-0.53-0.96-1.42-1.75-1.97-1.75-0.55 0-1 1.13-1 2.5zm205.4 33.75c-0.4 1.24-0.82 4.27-0.95 6.75-0.13 2.48-0.53 9.45-0.9 15.5-0.36 6.05-0.86 11.56-1.1 12.25-0.25 0.69 0 1.48 0.55 1.75 0.55 0.27 1.02 1.29 1.03 2.25 0.02 0.96-1.36 3.55-3.07 5.75-1.92 2.46-2.94 4.77-2.66 6 0.25 1.1 0.07 2.67-0.39 3.5-0.7 1.24-1.2 1.28-2.88 0.25-1.7-1.05-2.27-0.97-3.51 0.5-0.82 0.96-1.94 3.44-2.5 5.5-0.56 2.06-0.8 4.65-0.52 5.75 0.27 1.1 1.51 2.28 2.75 2.62 1.65 0.45 2.73-0.02 4.04-1.75 0.99-1.3 1.77-3.27 1.74-4.37-0.04-1.1 1.08-3.58 2.47-5.5 1.39-1.92 2.51-4.62 2.49-6-0.02-1.4 1.08-3.6 2.49-5 1.4-1.37 2.76-3.74 3.03-5.25 0.27-1.51 1.23-3.09 2.13-3.5 0.9-0.41 2.07-1.65 2.59-2.75 0.73-1.52 0.45-2.67-1.14-4.75-1.15-1.51-2.08-3.99-2.07-5.5 0.01-1.51 1.19-4.77 2.61-7.25 1.51-2.61 2.34-5.23 1.98-6.25-0.38-1.09 0.34-2.89 1.89-4.75 1.37-1.65 2.52-3.56 2.54-4.25 0.03-0.69-0.6-1.87-1.4-2.64-1.24-1.19-1.77-1.11-3.63 0.5-2.06 1.79-2.23 1.79-3.09 0.14-0.51-0.96-1.57-1.75-2.37-1.75-0.79 0-1.76 1.01-2.15 2.25z"/>
</svg>